<?xml version="1.0" encoding="utf-8" standalone="no"?>
<!DOCTYPE svg PUBLIC "-//W3C//DTD SVG 1.1//EN"
  "http://www.w3.org/Graphics/SVG/1.1/DTD/svg11.dtd">
<svg xmlns:xlink="http://www.w3.org/1999/xlink" width="583.54pt" height="702.5525pt" viewBox="0 0 583.54 702.5525" xmlns="http://www.w3.org/2000/svg" version="1.1">
 <metadata>
  <rdf:RDF xmlns:dc="http://purl.org/dc/elements/1.1/" xmlns:cc="http://creativecommons.org/ns#" xmlns:rdf="http://www.w3.org/1999/02/22-rdf-syntax-ns#">
   <cc:Work>
    <dc:type rdf:resource="http://purl.org/dc/dcmitype/StillImage"/>
    <dc:date>2026-05-17T19:34:22.041788</dc:date>
    <dc:format>image/svg+xml</dc:format>
    <dc:creator>
     <cc:Agent>
      <dc:title>Matplotlib v3.10.7, https://matplotlib.org/</dc:title>
     </cc:Agent>
    </dc:creator>
   </cc:Work>
  </rdf:RDF>
 </metadata>
 <defs>
  <style type="text/css">*{stroke-linejoin: round; stroke-linecap: butt}</style>
 </defs>
 <g id="figure_1">
  <g id="patch_1">
   <path d="M 0 702.5525 
L 583.54 702.5525 
L 583.54 0 
L 0 0 
L 0 702.5525 
z
" style="fill: none"/>
  </g>
  <g id="axes_1">
   <g id="patch_2">
    <path d="M 80.28 316.7 
L 576.34 316.7 
L 576.34 7.2 
L 80.28 7.2 
z
" style="fill: #ffffff"/>
   </g>
   <g id="patch_3">
    <path d="M 102.828182 316.7 
L 107.337818 316.7 
L 107.337818 21.938095 
L 102.828182 21.938095 
z
" clip-path="url(#p723c5123b9)" style="fill: #1f77b4; opacity: 0.85"/>
   </g>
   <g id="patch_4">
    <path d="M 107.337818 316.7 
L 111.847455 316.7 
L 111.847455 298.277381 
L 107.337818 298.277381 
z
" clip-path="url(#p723c5123b9)" style="fill: #1f77b4; opacity: 0.85"/>
   </g>
   <g id="patch_5">
    <path d="M 111.847455 316.7 
L 116.357091 316.7 
L 116.357091 311.436395 
L 111.847455 311.436395 
z
" clip-path="url(#p723c5123b9)" style="fill: #1f77b4; opacity: 0.85"/>
   </g>
   <g id="patch_6">
    <path d="M 116.357091 316.7 
L 120.866727 316.7 
L 120.866727 293.013776 
L 116.357091 293.013776 
z
" clip-path="url(#p723c5123b9)" style="fill: #1f77b4; opacity: 0.85"/>
   </g>
   <g id="patch_7">
    <path d="M 120.866727 316.7 
L 125.376364 316.7 
L 125.376364 295.645578 
L 120.866727 295.645578 
z
" clip-path="url(#p723c5123b9)" style="fill: #1f77b4; opacity: 0.85"/>
   </g>
   <g id="patch_8">
    <path d="M 125.376364 316.7 
L 129.886 316.7 
L 129.886 277.222959 
L 125.376364 277.222959 
z
" clip-path="url(#p723c5123b9)" style="fill: #1f77b4; opacity: 0.85"/>
   </g>
   <g id="patch_9">
    <path d="M 129.886 316.7 
L 134.395636 316.7 
L 134.395636 269.327551 
L 129.886 269.327551 
z
" clip-path="url(#p723c5123b9)" style="fill: #1f77b4; opacity: 0.85"/>
   </g>
   <g id="patch_10">
    <path d="M 134.395636 316.7 
L 138.905273 316.7 
L 138.905273 279.854762 
L 134.395636 279.854762 
z
" clip-path="url(#p723c5123b9)" style="fill: #1f77b4; opacity: 0.85"/>
   </g>
   <g id="patch_11">
    <path d="M 138.905273 316.7 
L 143.414909 316.7 
L 143.414909 266.695748 
L 138.905273 266.695748 
z
" clip-path="url(#p723c5123b9)" style="fill: #1f77b4; opacity: 0.85"/>
   </g>
   <g id="patch_12">
    <path d="M 143.414909 316.7 
L 147.924545 316.7 
L 147.924545 277.222959 
L 143.414909 277.222959 
z
" clip-path="url(#p723c5123b9)" style="fill: #1f77b4; opacity: 0.85"/>
   </g>
   <g id="patch_13">
    <path d="M 147.924545 316.7 
L 152.434182 316.7 
L 152.434182 256.168537 
L 147.924545 256.168537 
z
" clip-path="url(#p723c5123b9)" style="fill: #1f77b4; opacity: 0.85"/>
   </g>
   <g id="patch_14">
    <path d="M 152.434182 316.7 
L 156.943818 316.7 
L 156.943818 298.277381 
L 152.434182 298.277381 
z
" clip-path="url(#p723c5123b9)" style="fill: #1f77b4; opacity: 0.85"/>
   </g>
   <g id="patch_15">
    <path d="M 156.943818 316.7 
L 161.453455 316.7 
L 161.453455 279.854762 
L 156.943818 279.854762 
z
" clip-path="url(#p723c5123b9)" style="fill: #1f77b4; opacity: 0.85"/>
   </g>
   <g id="patch_16">
    <path d="M 161.453455 316.7 
L 165.963091 316.7 
L 165.963091 269.327551 
L 161.453455 269.327551 
z
" clip-path="url(#p723c5123b9)" style="fill: #1f77b4; opacity: 0.85"/>
   </g>
   <g id="patch_17">
    <path d="M 165.963091 316.7 
L 170.472727 316.7 
L 170.472727 269.327551 
L 165.963091 269.327551 
z
" clip-path="url(#p723c5123b9)" style="fill: #1f77b4; opacity: 0.85"/>
   </g>
   <g id="patch_18">
    <path d="M 170.472727 316.7 
L 174.982364 316.7 
L 174.982364 258.80034 
L 170.472727 258.80034 
z
" clip-path="url(#p723c5123b9)" style="fill: #1f77b4; opacity: 0.85"/>
   </g>
   <g id="patch_19">
    <path d="M 174.982364 316.7 
L 179.492 316.7 
L 179.492 266.695748 
L 174.982364 266.695748 
z
" clip-path="url(#p723c5123b9)" style="fill: #1f77b4; opacity: 0.85"/>
   </g>
   <g id="patch_20">
    <path d="M 179.492 316.7 
L 184.001636 316.7 
L 184.001636 269.327551 
L 179.492 269.327551 
z
" clip-path="url(#p723c5123b9)" style="fill: #1f77b4; opacity: 0.85"/>
   </g>
   <g id="patch_21">
    <path d="M 184.001636 316.7 
L 188.511273 316.7 
L 188.511273 277.222959 
L 184.001636 277.222959 
z
" clip-path="url(#p723c5123b9)" style="fill: #1f77b4; opacity: 0.85"/>
   </g>
   <g id="patch_22">
    <path d="M 188.511273 316.7 
L 193.020909 316.7 
L 193.020909 253.536735 
L 188.511273 253.536735 
z
" clip-path="url(#p723c5123b9)" style="fill: #1f77b4; opacity: 0.85"/>
   </g>
   <g id="patch_23">
    <path d="M 193.020909 316.7 
L 197.530545 316.7 
L 197.530545 264.063946 
L 193.020909 264.063946 
z
" clip-path="url(#p723c5123b9)" style="fill: #1f77b4; opacity: 0.85"/>
   </g>
   <g id="patch_24">
    <path d="M 197.530545 316.7 
L 202.040182 316.7 
L 202.040182 264.063946 
L 197.530545 264.063946 
z
" clip-path="url(#p723c5123b9)" style="fill: #1f77b4; opacity: 0.85"/>
   </g>
   <g id="patch_25">
    <path d="M 202.040182 316.7 
L 206.549818 316.7 
L 206.549818 256.168537 
L 202.040182 256.168537 
z
" clip-path="url(#p723c5123b9)" style="fill: #1f77b4; opacity: 0.85"/>
   </g>
   <g id="patch_26">
    <path d="M 206.549818 316.7 
L 211.059455 316.7 
L 211.059455 256.168537 
L 206.549818 256.168537 
z
" clip-path="url(#p723c5123b9)" style="fill: #1f77b4; opacity: 0.85"/>
   </g>
   <g id="patch_27">
    <path d="M 211.059455 316.7 
L 215.569091 316.7 
L 215.569091 256.168537 
L 211.059455 256.168537 
z
" clip-path="url(#p723c5123b9)" style="fill: #1f77b4; opacity: 0.85"/>
   </g>
   <g id="patch_28">
    <path d="M 215.569091 316.7 
L 220.078727 316.7 
L 220.078727 248.273129 
L 215.569091 248.273129 
z
" clip-path="url(#p723c5123b9)" style="fill: #1f77b4; opacity: 0.85"/>
   </g>
   <g id="patch_29">
    <path d="M 220.078727 316.7 
L 224.588364 316.7 
L 224.588364 282.486565 
L 220.078727 282.486565 
z
" clip-path="url(#p723c5123b9)" style="fill: #1f77b4; opacity: 0.85"/>
   </g>
   <g id="patch_30">
    <path d="M 224.588364 316.7 
L 229.098 316.7 
L 229.098 235.114116 
L 224.588364 235.114116 
z
" clip-path="url(#p723c5123b9)" style="fill: #1f77b4; opacity: 0.85"/>
   </g>
   <g id="patch_31">
    <path d="M 229.098 316.7 
L 233.607636 316.7 
L 233.607636 250.904932 
L 229.098 250.904932 
z
" clip-path="url(#p723c5123b9)" style="fill: #1f77b4; opacity: 0.85"/>
   </g>
   <g id="patch_32">
    <path d="M 233.607636 316.7 
L 238.117273 316.7 
L 238.117273 243.009524 
L 233.607636 243.009524 
z
" clip-path="url(#p723c5123b9)" style="fill: #1f77b4; opacity: 0.85"/>
   </g>
   <g id="patch_33">
    <path d="M 238.117273 316.7 
L 242.626909 316.7 
L 242.626909 227.218707 
L 238.117273 227.218707 
z
" clip-path="url(#p723c5123b9)" style="fill: #1f77b4; opacity: 0.85"/>
   </g>
   <g id="patch_34">
    <path d="M 242.626909 316.7 
L 247.136545 316.7 
L 247.136545 248.273129 
L 242.626909 248.273129 
z
" clip-path="url(#p723c5123b9)" style="fill: #1f77b4; opacity: 0.85"/>
   </g>
   <g id="patch_35">
    <path d="M 247.136545 316.7 
L 251.646182 316.7 
L 251.646182 248.273129 
L 247.136545 248.273129 
z
" clip-path="url(#p723c5123b9)" style="fill: #1f77b4; opacity: 0.85"/>
   </g>
   <g id="patch_36">
    <path d="M 251.646182 316.7 
L 256.155818 316.7 
L 256.155818 250.904932 
L 251.646182 250.904932 
z
" clip-path="url(#p723c5123b9)" style="fill: #1f77b4; opacity: 0.85"/>
   </g>
   <g id="patch_37">
    <path d="M 256.155818 316.7 
L 260.665455 316.7 
L 260.665455 256.168537 
L 256.155818 256.168537 
z
" clip-path="url(#p723c5123b9)" style="fill: #1f77b4; opacity: 0.85"/>
   </g>
   <g id="patch_38">
    <path d="M 260.665455 316.7 
L 265.175091 316.7 
L 265.175091 271.959354 
L 260.665455 271.959354 
z
" clip-path="url(#p723c5123b9)" style="fill: #1f77b4; opacity: 0.85"/>
   </g>
   <g id="patch_39">
    <path d="M 265.175091 316.7 
L 269.684727 316.7 
L 269.684727 258.80034 
L 265.175091 258.80034 
z
" clip-path="url(#p723c5123b9)" style="fill: #1f77b4; opacity: 0.85"/>
   </g>
   <g id="patch_40">
    <path d="M 269.684727 316.7 
L 274.194364 316.7 
L 274.194364 253.536735 
L 269.684727 253.536735 
z
" clip-path="url(#p723c5123b9)" style="fill: #1f77b4; opacity: 0.85"/>
   </g>
   <g id="patch_41">
    <path d="M 274.194364 316.7 
L 278.704 316.7 
L 278.704 243.009524 
L 274.194364 243.009524 
z
" clip-path="url(#p723c5123b9)" style="fill: #1f77b4; opacity: 0.85"/>
   </g>
   <g id="patch_42">
    <path d="M 278.704 316.7 
L 283.213636 316.7 
L 283.213636 240.377721 
L 278.704 240.377721 
z
" clip-path="url(#p723c5123b9)" style="fill: #1f77b4; opacity: 0.85"/>
   </g>
   <g id="patch_43">
    <path d="M 283.213636 316.7 
L 287.723273 316.7 
L 287.723273 214.059694 
L 283.213636 214.059694 
z
" clip-path="url(#p723c5123b9)" style="fill: #1f77b4; opacity: 0.85"/>
   </g>
   <g id="patch_44">
    <path d="M 287.723273 316.7 
L 292.232909 316.7 
L 292.232909 269.327551 
L 287.723273 269.327551 
z
" clip-path="url(#p723c5123b9)" style="fill: #1f77b4; opacity: 0.85"/>
   </g>
   <g id="patch_45">
    <path d="M 292.232909 316.7 
L 296.742545 316.7 
L 296.742545 248.273129 
L 292.232909 248.273129 
z
" clip-path="url(#p723c5123b9)" style="fill: #1f77b4; opacity: 0.85"/>
   </g>
   <g id="patch_46">
    <path d="M 296.742545 316.7 
L 301.252182 316.7 
L 301.252182 250.904932 
L 296.742545 250.904932 
z
" clip-path="url(#p723c5123b9)" style="fill: #1f77b4; opacity: 0.85"/>
   </g>
   <g id="patch_47">
    <path d="M 301.252182 316.7 
L 305.761818 316.7 
L 305.761818 224.586905 
L 301.252182 224.586905 
z
" clip-path="url(#p723c5123b9)" style="fill: #1f77b4; opacity: 0.85"/>
   </g>
   <g id="patch_48">
    <path d="M 305.761818 316.7 
L 310.271455 316.7 
L 310.271455 235.114116 
L 305.761818 235.114116 
z
" clip-path="url(#p723c5123b9)" style="fill: #1f77b4; opacity: 0.85"/>
   </g>
   <g id="patch_49">
    <path d="M 310.271455 316.7 
L 314.781091 316.7 
L 314.781091 219.323299 
L 310.271455 219.323299 
z
" clip-path="url(#p723c5123b9)" style="fill: #1f77b4; opacity: 0.85"/>
   </g>
   <g id="patch_50">
    <path d="M 314.781091 316.7 
L 319.290727 316.7 
L 319.290727 214.059694 
L 314.781091 214.059694 
z
" clip-path="url(#p723c5123b9)" style="fill: #1f77b4; opacity: 0.85"/>
   </g>
   <g id="patch_51">
    <path d="M 319.290727 316.7 
L 323.800364 316.7 
L 323.800364 243.009524 
L 319.290727 243.009524 
z
" clip-path="url(#p723c5123b9)" style="fill: #1f77b4; opacity: 0.85"/>
   </g>
   <g id="patch_52">
    <path d="M 323.800364 316.7 
L 328.31 316.7 
L 328.31 250.904932 
L 323.800364 250.904932 
z
" clip-path="url(#p723c5123b9)" style="fill: #1f77b4; opacity: 0.85"/>
   </g>
   <g id="patch_53">
    <path d="M 328.31 316.7 
L 332.819636 316.7 
L 332.819636 245.641327 
L 328.31 245.641327 
z
" clip-path="url(#p723c5123b9)" style="fill: #1f77b4; opacity: 0.85"/>
   </g>
   <g id="patch_54">
    <path d="M 332.819636 316.7 
L 337.329273 316.7 
L 337.329273 240.377721 
L 332.819636 240.377721 
z
" clip-path="url(#p723c5123b9)" style="fill: #1f77b4; opacity: 0.85"/>
   </g>
   <g id="patch_55">
    <path d="M 337.329273 316.7 
L 341.838909 316.7 
L 341.838909 243.009524 
L 337.329273 243.009524 
z
" clip-path="url(#p723c5123b9)" style="fill: #1f77b4; opacity: 0.85"/>
   </g>
   <g id="patch_56">
    <path d="M 341.838909 316.7 
L 346.348545 316.7 
L 346.348545 235.114116 
L 341.838909 235.114116 
z
" clip-path="url(#p723c5123b9)" style="fill: #1f77b4; opacity: 0.85"/>
   </g>
   <g id="patch_57">
    <path d="M 346.348545 316.7 
L 350.858182 316.7 
L 350.858182 227.218707 
L 346.348545 227.218707 
z
" clip-path="url(#p723c5123b9)" style="fill: #1f77b4; opacity: 0.85"/>
   </g>
   <g id="patch_58">
    <path d="M 350.858182 316.7 
L 355.367818 316.7 
L 355.367818 229.85051 
L 350.858182 229.85051 
z
" clip-path="url(#p723c5123b9)" style="fill: #1f77b4; opacity: 0.85"/>
   </g>
   <g id="patch_59">
    <path d="M 355.367818 316.7 
L 359.877455 316.7 
L 359.877455 237.745918 
L 355.367818 237.745918 
z
" clip-path="url(#p723c5123b9)" style="fill: #1f77b4; opacity: 0.85"/>
   </g>
   <g id="patch_60">
    <path d="M 359.877455 316.7 
L 364.387091 316.7 
L 364.387091 253.536735 
L 359.877455 253.536735 
z
" clip-path="url(#p723c5123b9)" style="fill: #1f77b4; opacity: 0.85"/>
   </g>
   <g id="patch_61">
    <path d="M 364.387091 316.7 
L 368.896727 316.7 
L 368.896727 271.959354 
L 364.387091 271.959354 
z
" clip-path="url(#p723c5123b9)" style="fill: #1f77b4; opacity: 0.85"/>
   </g>
   <g id="patch_62">
    <path d="M 368.896727 316.7 
L 373.406364 316.7 
L 373.406364 256.168537 
L 368.896727 256.168537 
z
" clip-path="url(#p723c5123b9)" style="fill: #1f77b4; opacity: 0.85"/>
   </g>
   <g id="patch_63">
    <path d="M 373.406364 316.7 
L 377.916 316.7 
L 377.916 245.641327 
L 373.406364 245.641327 
z
" clip-path="url(#p723c5123b9)" style="fill: #1f77b4; opacity: 0.85"/>
   </g>
   <g id="patch_64">
    <path d="M 377.916 316.7 
L 382.425636 316.7 
L 382.425636 266.695748 
L 377.916 266.695748 
z
" clip-path="url(#p723c5123b9)" style="fill: #1f77b4; opacity: 0.85"/>
   </g>
   <g id="patch_65">
    <path d="M 382.425636 316.7 
L 386.935273 316.7 
L 386.935273 258.80034 
L 382.425636 258.80034 
z
" clip-path="url(#p723c5123b9)" style="fill: #1f77b4; opacity: 0.85"/>
   </g>
   <g id="patch_66">
    <path d="M 386.935273 316.7 
L 391.444909 316.7 
L 391.444909 250.904932 
L 386.935273 250.904932 
z
" clip-path="url(#p723c5123b9)" style="fill: #1f77b4; opacity: 0.85"/>
   </g>
   <g id="patch_67">
    <path d="M 391.444909 316.7 
L 395.954545 316.7 
L 395.954545 253.536735 
L 391.444909 253.536735 
z
" clip-path="url(#p723c5123b9)" style="fill: #1f77b4; opacity: 0.85"/>
   </g>
   <g id="patch_68">
    <path d="M 395.954545 316.7 
L 400.464182 316.7 
L 400.464182 256.168537 
L 395.954545 256.168537 
z
" clip-path="url(#p723c5123b9)" style="fill: #1f77b4; opacity: 0.85"/>
   </g>
   <g id="patch_69">
    <path d="M 400.464182 316.7 
L 404.973818 316.7 
L 404.973818 261.432143 
L 400.464182 261.432143 
z
" clip-path="url(#p723c5123b9)" style="fill: #1f77b4; opacity: 0.85"/>
   </g>
   <g id="patch_70">
    <path d="M 404.973818 316.7 
L 409.483455 316.7 
L 409.483455 248.273129 
L 404.973818 248.273129 
z
" clip-path="url(#p723c5123b9)" style="fill: #1f77b4; opacity: 0.85"/>
   </g>
   <g id="patch_71">
    <path d="M 409.483455 316.7 
L 413.993091 316.7 
L 413.993091 256.168537 
L 409.483455 256.168537 
z
" clip-path="url(#p723c5123b9)" style="fill: #1f77b4; opacity: 0.85"/>
   </g>
   <g id="patch_72">
    <path d="M 413.993091 316.7 
L 418.502727 316.7 
L 418.502727 253.536735 
L 413.993091 253.536735 
z
" clip-path="url(#p723c5123b9)" style="fill: #1f77b4; opacity: 0.85"/>
   </g>
   <g id="patch_73">
    <path d="M 418.502727 316.7 
L 423.012364 316.7 
L 423.012364 277.222959 
L 418.502727 277.222959 
z
" clip-path="url(#p723c5123b9)" style="fill: #1f77b4; opacity: 0.85"/>
   </g>
   <g id="patch_74">
    <path d="M 423.012364 316.7 
L 427.522 316.7 
L 427.522 261.432143 
L 423.012364 261.432143 
z
" clip-path="url(#p723c5123b9)" style="fill: #1f77b4; opacity: 0.85"/>
   </g>
   <g id="patch_75">
    <path d="M 427.522 316.7 
L 432.031636 316.7 
L 432.031636 271.959354 
L 427.522 271.959354 
z
" clip-path="url(#p723c5123b9)" style="fill: #1f77b4; opacity: 0.85"/>
   </g>
   <g id="patch_76">
    <path d="M 432.031636 316.7 
L 436.541273 316.7 
L 436.541273 261.432143 
L 432.031636 261.432143 
z
" clip-path="url(#p723c5123b9)" style="fill: #1f77b4; opacity: 0.85"/>
   </g>
   <g id="patch_77">
    <path d="M 436.541273 316.7 
L 441.050909 316.7 
L 441.050909 266.695748 
L 436.541273 266.695748 
z
" clip-path="url(#p723c5123b9)" style="fill: #1f77b4; opacity: 0.85"/>
   </g>
   <g id="patch_78">
    <path d="M 441.050909 316.7 
L 445.560545 316.7 
L 445.560545 266.695748 
L 441.050909 266.695748 
z
" clip-path="url(#p723c5123b9)" style="fill: #1f77b4; opacity: 0.85"/>
   </g>
   <g id="patch_79">
    <path d="M 445.560545 316.7 
L 450.070182 316.7 
L 450.070182 266.695748 
L 445.560545 266.695748 
z
" clip-path="url(#p723c5123b9)" style="fill: #1f77b4; opacity: 0.85"/>
   </g>
   <g id="patch_80">
    <path d="M 450.070182 316.7 
L 454.579818 316.7 
L 454.579818 245.641327 
L 450.070182 245.641327 
z
" clip-path="url(#p723c5123b9)" style="fill: #1f77b4; opacity: 0.85"/>
   </g>
   <g id="patch_81">
    <path d="M 454.579818 316.7 
L 459.089455 316.7 
L 459.089455 256.168537 
L 454.579818 256.168537 
z
" clip-path="url(#p723c5123b9)" style="fill: #1f77b4; opacity: 0.85"/>
   </g>
   <g id="patch_82">
    <path d="M 459.089455 316.7 
L 463.599091 316.7 
L 463.599091 290.381973 
L 459.089455 290.381973 
z
" clip-path="url(#p723c5123b9)" style="fill: #1f77b4; opacity: 0.85"/>
   </g>
   <g id="patch_83">
    <path d="M 463.599091 316.7 
L 468.108727 316.7 
L 468.108727 264.063946 
L 463.599091 264.063946 
z
" clip-path="url(#p723c5123b9)" style="fill: #1f77b4; opacity: 0.85"/>
   </g>
   <g id="patch_84">
    <path d="M 468.108727 316.7 
L 472.618364 316.7 
L 472.618364 279.854762 
L 468.108727 279.854762 
z
" clip-path="url(#p723c5123b9)" style="fill: #1f77b4; opacity: 0.85"/>
   </g>
   <g id="patch_85">
    <path d="M 472.618364 316.7 
L 477.128 316.7 
L 477.128 261.432143 
L 472.618364 261.432143 
z
" clip-path="url(#p723c5123b9)" style="fill: #1f77b4; opacity: 0.85"/>
   </g>
   <g id="patch_86">
    <path d="M 477.128 316.7 
L 481.637636 316.7 
L 481.637636 279.854762 
L 477.128 279.854762 
z
" clip-path="url(#p723c5123b9)" style="fill: #1f77b4; opacity: 0.85"/>
   </g>
   <g id="patch_87">
    <path d="M 481.637636 316.7 
L 486.147273 316.7 
L 486.147273 293.013776 
L 481.637636 293.013776 
z
" clip-path="url(#p723c5123b9)" style="fill: #1f77b4; opacity: 0.85"/>
   </g>
   <g id="patch_88">
    <path d="M 486.147273 316.7 
L 490.656909 316.7 
L 490.656909 264.063946 
L 486.147273 264.063946 
z
" clip-path="url(#p723c5123b9)" style="fill: #1f77b4; opacity: 0.85"/>
   </g>
   <g id="patch_89">
    <path d="M 490.656909 316.7 
L 495.166545 316.7 
L 495.166545 279.854762 
L 490.656909 279.854762 
z
" clip-path="url(#p723c5123b9)" style="fill: #1f77b4; opacity: 0.85"/>
   </g>
   <g id="patch_90">
    <path d="M 495.166545 316.7 
L 499.676182 316.7 
L 499.676182 279.854762 
L 495.166545 279.854762 
z
" clip-path="url(#p723c5123b9)" style="fill: #1f77b4; opacity: 0.85"/>
   </g>
   <g id="patch_91">
    <path d="M 499.676182 316.7 
L 504.185818 316.7 
L 504.185818 253.536735 
L 499.676182 253.536735 
z
" clip-path="url(#p723c5123b9)" style="fill: #1f77b4; opacity: 0.85"/>
   </g>
   <g id="patch_92">
    <path d="M 504.185818 316.7 
L 508.695455 316.7 
L 508.695455 271.959354 
L 504.185818 271.959354 
z
" clip-path="url(#p723c5123b9)" style="fill: #1f77b4; opacity: 0.85"/>
   </g>
   <g id="patch_93">
    <path d="M 508.695455 316.7 
L 513.205091 316.7 
L 513.205091 269.327551 
L 508.695455 269.327551 
z
" clip-path="url(#p723c5123b9)" style="fill: #1f77b4; opacity: 0.85"/>
   </g>
   <g id="patch_94">
    <path d="M 513.205091 316.7 
L 517.714727 316.7 
L 517.714727 293.013776 
L 513.205091 293.013776 
z
" clip-path="url(#p723c5123b9)" style="fill: #1f77b4; opacity: 0.85"/>
   </g>
   <g id="patch_95">
    <path d="M 517.714727 316.7 
L 522.224364 316.7 
L 522.224364 300.909184 
L 517.714727 300.909184 
z
" clip-path="url(#p723c5123b9)" style="fill: #1f77b4; opacity: 0.85"/>
   </g>
   <g id="patch_96">
    <path d="M 522.224364 316.7 
L 526.734 316.7 
L 526.734 271.959354 
L 522.224364 271.959354 
z
" clip-path="url(#p723c5123b9)" style="fill: #1f77b4; opacity: 0.85"/>
   </g>
   <g id="patch_97">
    <path d="M 526.734 316.7 
L 531.243636 316.7 
L 531.243636 282.486565 
L 526.734 282.486565 
z
" clip-path="url(#p723c5123b9)" style="fill: #1f77b4; opacity: 0.85"/>
   </g>
   <g id="patch_98">
    <path d="M 531.243636 316.7 
L 535.753273 316.7 
L 535.753273 295.645578 
L 531.243636 295.645578 
z
" clip-path="url(#p723c5123b9)" style="fill: #1f77b4; opacity: 0.85"/>
   </g>
   <g id="patch_99">
    <path d="M 535.753273 316.7 
L 540.262909 316.7 
L 540.262909 303.540986 
L 535.753273 303.540986 
z
" clip-path="url(#p723c5123b9)" style="fill: #1f77b4; opacity: 0.85"/>
   </g>
   <g id="patch_100">
    <path d="M 540.262909 316.7 
L 544.772545 316.7 
L 544.772545 298.277381 
L 540.262909 298.277381 
z
" clip-path="url(#p723c5123b9)" style="fill: #1f77b4; opacity: 0.85"/>
   </g>
   <g id="patch_101">
    <path d="M 544.772545 316.7 
L 549.282182 316.7 
L 549.282182 298.277381 
L 544.772545 298.277381 
z
" clip-path="url(#p723c5123b9)" style="fill: #1f77b4; opacity: 0.85"/>
   </g>
   <g id="patch_102">
    <path d="M 549.282182 316.7 
L 553.791818 316.7 
L 553.791818 308.804592 
L 549.282182 308.804592 
z
" clip-path="url(#p723c5123b9)" style="fill: #1f77b4; opacity: 0.85"/>
   </g>
   <g id="patch_103">
    <path d="M 102.828182 316.7 
L 107.337818 316.7 
L 107.337818 179.708462 
L 102.828182 179.708462 
z
" clip-path="url(#p723c5123b9)" style="fill: #ff7f0e; opacity: 0.5"/>
   </g>
   <g id="patch_104">
    <path d="M 107.337818 316.7 
L 111.847455 316.7 
L 111.847455 226.057577 
L 107.337818 226.057577 
z
" clip-path="url(#p723c5123b9)" style="fill: #ff7f0e; opacity: 0.5"/>
   </g>
   <g id="patch_105">
    <path d="M 111.847455 316.7 
L 116.357091 316.7 
L 116.357091 255.025774 
L 111.847455 255.025774 
z
" clip-path="url(#p723c5123b9)" style="fill: #ff7f0e; opacity: 0.5"/>
   </g>
   <g id="patch_106">
    <path d="M 116.357091 316.7 
L 120.866727 316.7 
L 120.866727 263.622787 
L 116.357091 263.622787 
z
" clip-path="url(#p723c5123b9)" style="fill: #ff7f0e; opacity: 0.5"/>
   </g>
   <g id="patch_107">
    <path d="M 120.866727 316.7 
L 125.376364 316.7 
L 125.376364 264.183462 
L 120.866727 264.183462 
z
" clip-path="url(#p723c5123b9)" style="fill: #ff7f0e; opacity: 0.5"/>
   </g>
   <g id="patch_108">
    <path d="M 125.376364 316.7 
L 129.886 316.7 
L 129.886 254.091316 
L 125.376364 254.091316 
z
" clip-path="url(#p723c5123b9)" style="fill: #ff7f0e; opacity: 0.5"/>
   </g>
   <g id="patch_109">
    <path d="M 129.886 316.7 
L 134.395636 316.7 
L 134.395636 262.501438 
L 129.886 262.501438 
z
" clip-path="url(#p723c5123b9)" style="fill: #ff7f0e; opacity: 0.5"/>
   </g>
   <g id="patch_110">
    <path d="M 134.395636 316.7 
L 138.905273 316.7 
L 138.905273 255.399557 
L 134.395636 255.399557 
z
" clip-path="url(#p723c5123b9)" style="fill: #ff7f0e; opacity: 0.5"/>
   </g>
   <g id="patch_111">
    <path d="M 138.905273 316.7 
L 143.414909 316.7 
L 143.414909 262.875221 
L 138.905273 262.875221 
z
" clip-path="url(#p723c5123b9)" style="fill: #ff7f0e; opacity: 0.5"/>
   </g>
   <g id="patch_112">
    <path d="M 143.414909 316.7 
L 147.924545 316.7 
L 147.924545 260.258739 
L 143.414909 260.258739 
z
" clip-path="url(#p723c5123b9)" style="fill: #ff7f0e; opacity: 0.5"/>
   </g>
   <g id="patch_113">
    <path d="M 147.924545 316.7 
L 152.434182 316.7 
L 152.434182 265.491703 
L 147.924545 265.491703 
z
" clip-path="url(#p723c5123b9)" style="fill: #ff7f0e; opacity: 0.5"/>
   </g>
   <g id="patch_114">
    <path d="M 152.434182 316.7 
L 156.943818 316.7 
L 156.943818 265.678595 
L 152.434182 265.678595 
z
" clip-path="url(#p723c5123b9)" style="fill: #ff7f0e; opacity: 0.5"/>
   </g>
   <g id="patch_115">
    <path d="M 156.943818 316.7 
L 161.453455 316.7 
L 161.453455 266.986836 
L 156.943818 266.986836 
z
" clip-path="url(#p723c5123b9)" style="fill: #ff7f0e; opacity: 0.5"/>
   </g>
   <g id="patch_116">
    <path d="M 161.453455 316.7 
L 165.963091 316.7 
L 165.963091 261.753871 
L 161.453455 261.753871 
z
" clip-path="url(#p723c5123b9)" style="fill: #ff7f0e; opacity: 0.5"/>
   </g>
   <g id="patch_117">
    <path d="M 165.963091 316.7 
L 170.472727 316.7 
L 170.472727 262.314546 
L 165.963091 262.314546 
z
" clip-path="url(#p723c5123b9)" style="fill: #ff7f0e; opacity: 0.5"/>
   </g>
   <g id="patch_118">
    <path d="M 170.472727 316.7 
L 174.982364 316.7 
L 174.982364 266.23927 
L 170.472727 266.23927 
z
" clip-path="url(#p723c5123b9)" style="fill: #ff7f0e; opacity: 0.5"/>
   </g>
   <g id="patch_119">
    <path d="M 174.982364 316.7 
L 179.492 316.7 
L 179.492 259.884956 
L 174.982364 259.884956 
z
" clip-path="url(#p723c5123b9)" style="fill: #ff7f0e; opacity: 0.5"/>
   </g>
   <g id="patch_120">
    <path d="M 179.492 316.7 
L 184.001636 316.7 
L 184.001636 259.698064 
L 179.492 259.698064 
z
" clip-path="url(#p723c5123b9)" style="fill: #ff7f0e; opacity: 0.5"/>
   </g>
   <g id="patch_121">
    <path d="M 184.001636 316.7 
L 188.511273 316.7 
L 188.511273 269.042644 
L 184.001636 269.042644 
z
" clip-path="url(#p723c5123b9)" style="fill: #ff7f0e; opacity: 0.5"/>
   </g>
   <g id="patch_122">
    <path d="M 188.511273 316.7 
L 193.020909 316.7 
L 193.020909 255.586449 
L 188.511273 255.586449 
z
" clip-path="url(#p723c5123b9)" style="fill: #ff7f0e; opacity: 0.5"/>
   </g>
   <g id="patch_123">
    <path d="M 193.020909 316.7 
L 197.530545 316.7 
L 197.530545 254.278208 
L 193.020909 254.278208 
z
" clip-path="url(#p723c5123b9)" style="fill: #ff7f0e; opacity: 0.5"/>
   </g>
   <g id="patch_124">
    <path d="M 197.530545 316.7 
L 202.040182 316.7 
L 202.040182 264.370354 
L 197.530545 264.370354 
z
" clip-path="url(#p723c5123b9)" style="fill: #ff7f0e; opacity: 0.5"/>
   </g>
   <g id="patch_125">
    <path d="M 202.040182 316.7 
L 206.549818 316.7 
L 206.549818 260.632522 
L 202.040182 260.632522 
z
" clip-path="url(#p723c5123b9)" style="fill: #ff7f0e; opacity: 0.5"/>
   </g>
   <g id="patch_126">
    <path d="M 206.549818 316.7 
L 211.059455 316.7 
L 211.059455 263.435896 
L 206.549818 263.435896 
z
" clip-path="url(#p723c5123b9)" style="fill: #ff7f0e; opacity: 0.5"/>
   </g>
   <g id="patch_127">
    <path d="M 211.059455 316.7 
L 215.569091 316.7 
L 215.569091 257.268473 
L 211.059455 257.268473 
z
" clip-path="url(#p723c5123b9)" style="fill: #ff7f0e; opacity: 0.5"/>
   </g>
   <g id="patch_128">
    <path d="M 215.569091 316.7 
L 220.078727 316.7 
L 220.078727 261.193197 
L 215.569091 261.193197 
z
" clip-path="url(#p723c5123b9)" style="fill: #ff7f0e; opacity: 0.5"/>
   </g>
   <g id="patch_129">
    <path d="M 220.078727 316.7 
L 224.588364 316.7 
L 224.588364 261.56698 
L 220.078727 261.56698 
z
" clip-path="url(#p723c5123b9)" style="fill: #ff7f0e; opacity: 0.5"/>
   </g>
   <g id="patch_130">
    <path d="M 224.588364 316.7 
L 229.098 316.7 
L 229.098 263.622787 
L 224.588364 263.622787 
z
" clip-path="url(#p723c5123b9)" style="fill: #ff7f0e; opacity: 0.5"/>
   </g>
   <g id="patch_131">
    <path d="M 229.098 316.7 
L 233.607636 316.7 
L 233.607636 255.586449 
L 229.098 255.586449 
z
" clip-path="url(#p723c5123b9)" style="fill: #ff7f0e; opacity: 0.5"/>
   </g>
   <g id="patch_132">
    <path d="M 233.607636 316.7 
L 238.117273 316.7 
L 238.117273 264.183462 
L 233.607636 264.183462 
z
" clip-path="url(#p723c5123b9)" style="fill: #ff7f0e; opacity: 0.5"/>
   </g>
   <g id="patch_133">
    <path d="M 238.117273 316.7 
L 242.626909 316.7 
L 242.626909 261.193197 
L 238.117273 261.193197 
z
" clip-path="url(#p723c5123b9)" style="fill: #ff7f0e; opacity: 0.5"/>
   </g>
   <g id="patch_134">
    <path d="M 242.626909 316.7 
L 247.136545 316.7 
L 247.136545 264.557245 
L 242.626909 264.557245 
z
" clip-path="url(#p723c5123b9)" style="fill: #ff7f0e; opacity: 0.5"/>
   </g>
   <g id="patch_135">
    <path d="M 247.136545 316.7 
L 251.646182 316.7 
L 251.646182 262.127655 
L 247.136545 262.127655 
z
" clip-path="url(#p723c5123b9)" style="fill: #ff7f0e; opacity: 0.5"/>
   </g>
   <g id="patch_136">
    <path d="M 251.646182 316.7 
L 256.155818 316.7 
L 256.155818 254.651991 
L 251.646182 254.651991 
z
" clip-path="url(#p723c5123b9)" style="fill: #ff7f0e; opacity: 0.5"/>
   </g>
   <g id="patch_137">
    <path d="M 256.155818 316.7 
L 260.665455 316.7 
L 260.665455 264.931029 
L 256.155818 264.931029 
z
" clip-path="url(#p723c5123b9)" style="fill: #ff7f0e; opacity: 0.5"/>
   </g>
   <g id="patch_138">
    <path d="M 260.665455 316.7 
L 265.175091 316.7 
L 265.175091 263.996571 
L 260.665455 263.996571 
z
" clip-path="url(#p723c5123b9)" style="fill: #ff7f0e; opacity: 0.5"/>
   </g>
   <g id="patch_139">
    <path d="M 265.175091 316.7 
L 269.684727 316.7 
L 269.684727 258.389823 
L 265.175091 258.389823 
z
" clip-path="url(#p723c5123b9)" style="fill: #ff7f0e; opacity: 0.5"/>
   </g>
   <g id="patch_140">
    <path d="M 269.684727 316.7 
L 274.194364 316.7 
L 274.194364 258.202931 
L 269.684727 258.202931 
z
" clip-path="url(#p723c5123b9)" style="fill: #ff7f0e; opacity: 0.5"/>
   </g>
   <g id="patch_141">
    <path d="M 274.194364 316.7 
L 278.704 316.7 
L 278.704 262.688329 
L 274.194364 262.688329 
z
" clip-path="url(#p723c5123b9)" style="fill: #ff7f0e; opacity: 0.5"/>
   </g>
   <g id="patch_142">
    <path d="M 278.704 316.7 
L 283.213636 316.7 
L 283.213636 268.481969 
L 278.704 268.481969 
z
" clip-path="url(#p723c5123b9)" style="fill: #ff7f0e; opacity: 0.5"/>
   </g>
   <g id="patch_143">
    <path d="M 283.213636 316.7 
L 287.723273 316.7 
L 287.723273 262.501438 
L 283.213636 262.501438 
z
" clip-path="url(#p723c5123b9)" style="fill: #ff7f0e; opacity: 0.5"/>
   </g>
   <g id="patch_144">
    <path d="M 287.723273 316.7 
L 292.232909 316.7 
L 292.232909 258.576714 
L 287.723273 258.576714 
z
" clip-path="url(#p723c5123b9)" style="fill: #ff7f0e; opacity: 0.5"/>
   </g>
   <g id="patch_145">
    <path d="M 292.232909 316.7 
L 296.742545 316.7 
L 296.742545 260.071847 
L 292.232909 260.071847 
z
" clip-path="url(#p723c5123b9)" style="fill: #ff7f0e; opacity: 0.5"/>
   </g>
   <g id="patch_146">
    <path d="M 296.742545 316.7 
L 301.252182 316.7 
L 301.252182 259.884956 
L 296.742545 259.884956 
z
" clip-path="url(#p723c5123b9)" style="fill: #ff7f0e; opacity: 0.5"/>
   </g>
   <g id="patch_147">
    <path d="M 301.252182 316.7 
L 305.761818 316.7 
L 305.761818 259.698064 
L 301.252182 259.698064 
z
" clip-path="url(#p723c5123b9)" style="fill: #ff7f0e; opacity: 0.5"/>
   </g>
   <g id="patch_148">
    <path d="M 305.761818 316.7 
L 310.271455 316.7 
L 310.271455 260.632522 
L 305.761818 260.632522 
z
" clip-path="url(#p723c5123b9)" style="fill: #ff7f0e; opacity: 0.5"/>
   </g>
   <g id="patch_149">
    <path d="M 310.271455 316.7 
L 314.781091 316.7 
L 314.781091 259.137389 
L 310.271455 259.137389 
z
" clip-path="url(#p723c5123b9)" style="fill: #ff7f0e; opacity: 0.5"/>
   </g>
   <g id="patch_150">
    <path d="M 314.781091 316.7 
L 319.290727 316.7 
L 319.290727 260.632522 
L 314.781091 260.632522 
z
" clip-path="url(#p723c5123b9)" style="fill: #ff7f0e; opacity: 0.5"/>
   </g>
   <g id="patch_151">
    <path d="M 319.290727 316.7 
L 323.800364 316.7 
L 323.800364 265.491703 
L 319.290727 265.491703 
z
" clip-path="url(#p723c5123b9)" style="fill: #ff7f0e; opacity: 0.5"/>
   </g>
   <g id="patch_152">
    <path d="M 323.800364 316.7 
L 328.31 316.7 
L 328.31 261.753871 
L 323.800364 261.753871 
z
" clip-path="url(#p723c5123b9)" style="fill: #ff7f0e; opacity: 0.5"/>
   </g>
   <g id="patch_153">
    <path d="M 328.31 316.7 
L 332.819636 316.7 
L 332.819636 263.809679 
L 328.31 263.809679 
z
" clip-path="url(#p723c5123b9)" style="fill: #ff7f0e; opacity: 0.5"/>
   </g>
   <g id="patch_154">
    <path d="M 332.819636 316.7 
L 337.329273 316.7 
L 337.329273 255.960232 
L 332.819636 255.960232 
z
" clip-path="url(#p723c5123b9)" style="fill: #ff7f0e; opacity: 0.5"/>
   </g>
   <g id="patch_155">
    <path d="M 337.329273 316.7 
L 341.838909 316.7 
L 341.838909 258.389823 
L 337.329273 258.389823 
z
" clip-path="url(#p723c5123b9)" style="fill: #ff7f0e; opacity: 0.5"/>
   </g>
   <g id="patch_156">
    <path d="M 341.838909 316.7 
L 346.348545 316.7 
L 346.348545 263.249004 
L 341.838909 263.249004 
z
" clip-path="url(#p723c5123b9)" style="fill: #ff7f0e; opacity: 0.5"/>
   </g>
   <g id="patch_157">
    <path d="M 346.348545 316.7 
L 350.858182 316.7 
L 350.858182 255.960232 
L 346.348545 255.960232 
z
" clip-path="url(#p723c5123b9)" style="fill: #ff7f0e; opacity: 0.5"/>
   </g>
   <g id="patch_158">
    <path d="M 350.858182 316.7 
L 355.367818 316.7 
L 355.367818 264.183462 
L 350.858182 264.183462 
z
" clip-path="url(#p723c5123b9)" style="fill: #ff7f0e; opacity: 0.5"/>
   </g>
   <g id="patch_159">
    <path d="M 355.367818 316.7 
L 359.877455 316.7 
L 359.877455 259.324281 
L 355.367818 259.324281 
z
" clip-path="url(#p723c5123b9)" style="fill: #ff7f0e; opacity: 0.5"/>
   </g>
   <g id="patch_160">
    <path d="M 359.877455 316.7 
L 364.387091 316.7 
L 364.387091 269.042644 
L 359.877455 269.042644 
z
" clip-path="url(#p723c5123b9)" style="fill: #ff7f0e; opacity: 0.5"/>
   </g>
   <g id="patch_161">
    <path d="M 364.387091 316.7 
L 368.896727 316.7 
L 368.896727 259.137389 
L 364.387091 259.137389 
z
" clip-path="url(#p723c5123b9)" style="fill: #ff7f0e; opacity: 0.5"/>
   </g>
   <g id="patch_162">
    <path d="M 368.896727 316.7 
L 373.406364 316.7 
L 373.406364 261.940763 
L 368.896727 261.940763 
z
" clip-path="url(#p723c5123b9)" style="fill: #ff7f0e; opacity: 0.5"/>
   </g>
   <g id="patch_163">
    <path d="M 373.406364 316.7 
L 377.916 316.7 
L 377.916 257.642256 
L 373.406364 257.642256 
z
" clip-path="url(#p723c5123b9)" style="fill: #ff7f0e; opacity: 0.5"/>
   </g>
   <g id="patch_164">
    <path d="M 377.916 316.7 
L 382.425636 316.7 
L 382.425636 262.314546 
L 377.916 262.314546 
z
" clip-path="url(#p723c5123b9)" style="fill: #ff7f0e; opacity: 0.5"/>
   </g>
   <g id="patch_165">
    <path d="M 382.425636 316.7 
L 386.935273 316.7 
L 386.935273 259.324281 
L 382.425636 259.324281 
z
" clip-path="url(#p723c5123b9)" style="fill: #ff7f0e; opacity: 0.5"/>
   </g>
   <g id="patch_166">
    <path d="M 386.935273 316.7 
L 391.444909 316.7 
L 391.444909 265.491703 
L 386.935273 265.491703 
z
" clip-path="url(#p723c5123b9)" style="fill: #ff7f0e; opacity: 0.5"/>
   </g>
   <g id="patch_167">
    <path d="M 391.444909 316.7 
L 395.954545 316.7 
L 395.954545 267.173728 
L 391.444909 267.173728 
z
" clip-path="url(#p723c5123b9)" style="fill: #ff7f0e; opacity: 0.5"/>
   </g>
   <g id="patch_168">
    <path d="M 395.954545 316.7 
L 400.464182 316.7 
L 400.464182 263.435896 
L 395.954545 263.435896 
z
" clip-path="url(#p723c5123b9)" style="fill: #ff7f0e; opacity: 0.5"/>
   </g>
   <g id="patch_169">
    <path d="M 400.464182 316.7 
L 404.973818 316.7 
L 404.973818 262.127655 
L 400.464182 262.127655 
z
" clip-path="url(#p723c5123b9)" style="fill: #ff7f0e; opacity: 0.5"/>
   </g>
   <g id="patch_170">
    <path d="M 404.973818 316.7 
L 409.483455 316.7 
L 409.483455 259.698064 
L 404.973818 259.698064 
z
" clip-path="url(#p723c5123b9)" style="fill: #ff7f0e; opacity: 0.5"/>
   </g>
   <g id="patch_171">
    <path d="M 409.483455 316.7 
L 413.993091 316.7 
L 413.993091 261.753871 
L 409.483455 261.753871 
z
" clip-path="url(#p723c5123b9)" style="fill: #ff7f0e; opacity: 0.5"/>
   </g>
   <g id="patch_172">
    <path d="M 413.993091 316.7 
L 418.502727 316.7 
L 418.502727 255.77334 
L 413.993091 255.77334 
z
" clip-path="url(#p723c5123b9)" style="fill: #ff7f0e; opacity: 0.5"/>
   </g>
   <g id="patch_173">
    <path d="M 418.502727 316.7 
L 423.012364 316.7 
L 423.012364 262.688329 
L 418.502727 262.688329 
z
" clip-path="url(#p723c5123b9)" style="fill: #ff7f0e; opacity: 0.5"/>
   </g>
   <g id="patch_174">
    <path d="M 423.012364 316.7 
L 427.522 316.7 
L 427.522 258.576714 
L 423.012364 258.576714 
z
" clip-path="url(#p723c5123b9)" style="fill: #ff7f0e; opacity: 0.5"/>
   </g>
   <g id="patch_175">
    <path d="M 427.522 316.7 
L 432.031636 316.7 
L 432.031636 266.23927 
L 427.522 266.23927 
z
" clip-path="url(#p723c5123b9)" style="fill: #ff7f0e; opacity: 0.5"/>
   </g>
   <g id="patch_176">
    <path d="M 432.031636 316.7 
L 436.541273 316.7 
L 436.541273 260.44563 
L 432.031636 260.44563 
z
" clip-path="url(#p723c5123b9)" style="fill: #ff7f0e; opacity: 0.5"/>
   </g>
   <g id="patch_177">
    <path d="M 436.541273 316.7 
L 441.050909 316.7 
L 441.050909 263.622787 
L 436.541273 263.622787 
z
" clip-path="url(#p723c5123b9)" style="fill: #ff7f0e; opacity: 0.5"/>
   </g>
   <g id="patch_178">
    <path d="M 441.050909 316.7 
L 445.560545 316.7 
L 445.560545 257.268473 
L 441.050909 257.268473 
z
" clip-path="url(#p723c5123b9)" style="fill: #ff7f0e; opacity: 0.5"/>
   </g>
   <g id="patch_179">
    <path d="M 445.560545 316.7 
L 450.070182 316.7 
L 450.070182 265.304812 
L 445.560545 265.304812 
z
" clip-path="url(#p723c5123b9)" style="fill: #ff7f0e; opacity: 0.5"/>
   </g>
   <g id="patch_180">
    <path d="M 450.070182 316.7 
L 454.579818 316.7 
L 454.579818 262.875221 
L 450.070182 262.875221 
z
" clip-path="url(#p723c5123b9)" style="fill: #ff7f0e; opacity: 0.5"/>
   </g>
   <g id="patch_181">
    <path d="M 454.579818 316.7 
L 459.089455 316.7 
L 459.089455 266.986836 
L 454.579818 266.986836 
z
" clip-path="url(#p723c5123b9)" style="fill: #ff7f0e; opacity: 0.5"/>
   </g>
   <g id="patch_182">
    <path d="M 459.089455 316.7 
L 463.599091 316.7 
L 463.599091 260.819414 
L 459.089455 260.819414 
z
" clip-path="url(#p723c5123b9)" style="fill: #ff7f0e; opacity: 0.5"/>
   </g>
   <g id="patch_183">
    <path d="M 463.599091 316.7 
L 468.108727 316.7 
L 468.108727 256.707798 
L 463.599091 256.707798 
z
" clip-path="url(#p723c5123b9)" style="fill: #ff7f0e; opacity: 0.5"/>
   </g>
   <g id="patch_184">
    <path d="M 468.108727 316.7 
L 472.618364 316.7 
L 472.618364 260.258739 
L 468.108727 260.258739 
z
" clip-path="url(#p723c5123b9)" style="fill: #ff7f0e; opacity: 0.5"/>
   </g>
   <g id="patch_185">
    <path d="M 472.618364 316.7 
L 477.128 316.7 
L 477.128 264.370354 
L 472.618364 264.370354 
z
" clip-path="url(#p723c5123b9)" style="fill: #ff7f0e; opacity: 0.5"/>
   </g>
   <g id="patch_186">
    <path d="M 477.128 316.7 
L 481.637636 316.7 
L 481.637636 260.44563 
L 477.128 260.44563 
z
" clip-path="url(#p723c5123b9)" style="fill: #ff7f0e; opacity: 0.5"/>
   </g>
   <g id="patch_187">
    <path d="M 481.637636 316.7 
L 486.147273 316.7 
L 486.147273 260.632522 
L 481.637636 260.632522 
z
" clip-path="url(#p723c5123b9)" style="fill: #ff7f0e; opacity: 0.5"/>
   </g>
   <g id="patch_188">
    <path d="M 486.147273 316.7 
L 490.656909 316.7 
L 490.656909 258.763606 
L 486.147273 258.763606 
z
" clip-path="url(#p723c5123b9)" style="fill: #ff7f0e; opacity: 0.5"/>
   </g>
   <g id="patch_189">
    <path d="M 490.656909 316.7 
L 495.166545 316.7 
L 495.166545 266.426161 
L 490.656909 266.426161 
z
" clip-path="url(#p723c5123b9)" style="fill: #ff7f0e; opacity: 0.5"/>
   </g>
   <g id="patch_190">
    <path d="M 495.166545 316.7 
L 499.676182 316.7 
L 499.676182 259.698064 
L 495.166545 259.698064 
z
" clip-path="url(#p723c5123b9)" style="fill: #ff7f0e; opacity: 0.5"/>
   </g>
   <g id="patch_191">
    <path d="M 499.676182 316.7 
L 504.185818 316.7 
L 504.185818 255.960232 
L 499.676182 255.960232 
z
" clip-path="url(#p723c5123b9)" style="fill: #ff7f0e; opacity: 0.5"/>
   </g>
   <g id="patch_192">
    <path d="M 504.185818 316.7 
L 508.695455 316.7 
L 508.695455 262.688329 
L 504.185818 262.688329 
z
" clip-path="url(#p723c5123b9)" style="fill: #ff7f0e; opacity: 0.5"/>
   </g>
   <g id="patch_193">
    <path d="M 508.695455 316.7 
L 513.205091 316.7 
L 513.205091 263.622787 
L 508.695455 263.622787 
z
" clip-path="url(#p723c5123b9)" style="fill: #ff7f0e; opacity: 0.5"/>
   </g>
   <g id="patch_194">
    <path d="M 513.205091 316.7 
L 517.714727 316.7 
L 517.714727 261.940763 
L 513.205091 261.940763 
z
" clip-path="url(#p723c5123b9)" style="fill: #ff7f0e; opacity: 0.5"/>
   </g>
   <g id="patch_195">
    <path d="M 517.714727 316.7 
L 522.224364 316.7 
L 522.224364 264.744137 
L 517.714727 264.744137 
z
" clip-path="url(#p723c5123b9)" style="fill: #ff7f0e; opacity: 0.5"/>
   </g>
   <g id="patch_196">
    <path d="M 522.224364 316.7 
L 526.734 316.7 
L 526.734 255.960232 
L 522.224364 255.960232 
z
" clip-path="url(#p723c5123b9)" style="fill: #ff7f0e; opacity: 0.5"/>
   </g>
   <g id="patch_197">
    <path d="M 526.734 316.7 
L 531.243636 316.7 
L 531.243636 263.435896 
L 526.734 263.435896 
z
" clip-path="url(#p723c5123b9)" style="fill: #ff7f0e; opacity: 0.5"/>
   </g>
   <g id="patch_198">
    <path d="M 531.243636 316.7 
L 535.753273 316.7 
L 535.753273 262.875221 
L 531.243636 262.875221 
z
" clip-path="url(#p723c5123b9)" style="fill: #ff7f0e; opacity: 0.5"/>
   </g>
   <g id="patch_199">
    <path d="M 535.753273 316.7 
L 540.262909 316.7 
L 540.262909 260.44563 
L 535.753273 260.44563 
z
" clip-path="url(#p723c5123b9)" style="fill: #ff7f0e; opacity: 0.5"/>
   </g>
   <g id="patch_200">
    <path d="M 540.262909 316.7 
L 544.772545 316.7 
L 544.772545 259.698064 
L 540.262909 259.698064 
z
" clip-path="url(#p723c5123b9)" style="fill: #ff7f0e; opacity: 0.5"/>
   </g>
   <g id="patch_201">
    <path d="M 544.772545 316.7 
L 549.282182 316.7 
L 549.282182 263.435896 
L 544.772545 263.435896 
z
" clip-path="url(#p723c5123b9)" style="fill: #ff7f0e; opacity: 0.5"/>
   </g>
   <g id="patch_202">
    <path d="M 549.282182 316.7 
L 553.791818 316.7 
L 553.791818 256.707798 
L 549.282182 256.707798 
z
" clip-path="url(#p723c5123b9)" style="fill: #ff7f0e; opacity: 0.5"/>
   </g>
   <g id="matplotlib.axis_1">
    <g id="xtick_1">
     <g id="line2d_1">
      <defs>
       <path id="m4bc08f07a8" d="M 0 0 
L 0 3.5 
" style="stroke: #000000; stroke-width: 0.8"/>
      </defs>
      <g>
       <use xlink:href="#m4bc08f07a8" x="102.828182" y="316.7" style="stroke: #000000; stroke-width: 0.8"/>
      </g>
     </g>
    </g>
    <g id="xtick_2">
     <g id="line2d_2">
      <g>
       <use xlink:href="#m4bc08f07a8" x="193.020909" y="316.7" style="stroke: #000000; stroke-width: 0.8"/>
      </g>
     </g>
    </g>
    <g id="xtick_3">
     <g id="line2d_3">
      <g>
       <use xlink:href="#m4bc08f07a8" x="283.213636" y="316.7" style="stroke: #000000; stroke-width: 0.8"/>
      </g>
     </g>
    </g>
    <g id="xtick_4">
     <g id="line2d_4">
      <g>
       <use xlink:href="#m4bc08f07a8" x="373.406364" y="316.7" style="stroke: #000000; stroke-width: 0.8"/>
      </g>
     </g>
    </g>
    <g id="xtick_5">
     <g id="line2d_5">
      <g>
       <use xlink:href="#m4bc08f07a8" x="463.599091" y="316.7" style="stroke: #000000; stroke-width: 0.8"/>
      </g>
     </g>
    </g>
    <g id="xtick_6">
     <g id="line2d_6">
      <g>
       <use xlink:href="#m4bc08f07a8" x="553.791818" y="316.7" style="stroke: #000000; stroke-width: 0.8"/>
      </g>
     </g>
    </g>
   </g>
   <g id="matplotlib.axis_2">
    <g id="ytick_1">
     <g id="line2d_7">
      <defs>
       <path id="m5600a4afe5" d="M 0 0 
L -3.5 0 
" style="stroke: #000000; stroke-width: 0.8"/>
      </defs>
      <g>
       <use xlink:href="#m5600a4afe5" x="80.28" y="316.7" style="stroke: #000000; stroke-width: 0.8"/>
      </g>
     </g>
     <g id="text_1">
      <!-- 0 -->
      <g transform="translate(63.1 322.77875) scale(0.16 -0.16)">
       <defs>
        <path id="DejaVuSans-30" d="M 2034 4250 
Q 1547 4250 1301 3770 
Q 1056 3291 1056 2328 
Q 1056 1369 1301 889 
Q 1547 409 2034 409 
Q 2525 409 2770 889 
Q 3016 1369 3016 2328 
Q 3016 3291 2770 3770 
Q 2525 4250 2034 4250 
z
M 2034 4750 
Q 2819 4750 3233 4129 
Q 3647 3509 3647 2328 
Q 3647 1150 3233 529 
Q 2819 -91 2034 -91 
Q 1250 -91 836 529 
Q 422 1150 422 2328 
Q 422 3509 836 4129 
Q 1250 4750 2034 4750 
z
" transform="scale(0.015625)"/>
       </defs>
       <use xlink:href="#DejaVuSans-30"/>
      </g>
     </g>
    </g>
    <g id="ytick_2">
     <g id="line2d_8">
      <g>
       <use xlink:href="#m5600a4afe5" x="80.28" y="260.195196" style="stroke: #000000; stroke-width: 0.8"/>
      </g>
     </g>
     <g id="text_2">
      <!-- 1 -->
      <g transform="translate(63.1 266.273946) scale(0.16 -0.16)">
       <defs>
        <path id="DejaVuSans-31" d="M 794 531 
L 1825 531 
L 1825 4091 
L 703 3866 
L 703 4441 
L 1819 4666 
L 2450 4666 
L 2450 531 
L 3481 531 
L 3481 0 
L 794 0 
L 794 531 
z
" transform="scale(0.015625)"/>
       </defs>
       <use xlink:href="#DejaVuSans-31"/>
      </g>
     </g>
    </g>
    <g id="ytick_3">
     <g id="line2d_9">
      <g>
       <use xlink:href="#m5600a4afe5" x="80.28" y="203.690391" style="stroke: #000000; stroke-width: 0.8"/>
      </g>
     </g>
     <g id="text_3">
      <!-- 2 -->
      <g transform="translate(63.1 209.769141) scale(0.16 -0.16)">
       <defs>
        <path id="DejaVuSans-32" d="M 1228 531 
L 3431 531 
L 3431 0 
L 469 0 
L 469 531 
Q 828 903 1448 1529 
Q 2069 2156 2228 2338 
Q 2531 2678 2651 2914 
Q 2772 3150 2772 3378 
Q 2772 3750 2511 3984 
Q 2250 4219 1831 4219 
Q 1534 4219 1204 4116 
Q 875 4013 500 3803 
L 500 4441 
Q 881 4594 1212 4672 
Q 1544 4750 1819 4750 
Q 2544 4750 2975 4387 
Q 3406 4025 3406 3419 
Q 3406 3131 3298 2873 
Q 3191 2616 2906 2266 
Q 2828 2175 2409 1742 
Q 1991 1309 1228 531 
z
" transform="scale(0.015625)"/>
       </defs>
       <use xlink:href="#DejaVuSans-32"/>
      </g>
     </g>
    </g>
    <g id="ytick_4">
     <g id="line2d_10">
      <g>
       <use xlink:href="#m5600a4afe5" x="80.28" y="147.185587" style="stroke: #000000; stroke-width: 0.8"/>
      </g>
     </g>
     <g id="text_4">
      <!-- 3 -->
      <g transform="translate(63.1 153.264337) scale(0.16 -0.16)">
       <defs>
        <path id="DejaVuSans-33" d="M 2597 2516 
Q 3050 2419 3304 2112 
Q 3559 1806 3559 1356 
Q 3559 666 3084 287 
Q 2609 -91 1734 -91 
Q 1441 -91 1130 -33 
Q 819 25 488 141 
L 488 750 
Q 750 597 1062 519 
Q 1375 441 1716 441 
Q 2309 441 2620 675 
Q 2931 909 2931 1356 
Q 2931 1769 2642 2001 
Q 2353 2234 1838 2234 
L 1294 2234 
L 1294 2753 
L 1863 2753 
Q 2328 2753 2575 2939 
Q 2822 3125 2822 3475 
Q 2822 3834 2567 4026 
Q 2313 4219 1838 4219 
Q 1578 4219 1281 4162 
Q 984 4106 628 3988 
L 628 4550 
Q 988 4650 1302 4700 
Q 1616 4750 1894 4750 
Q 2613 4750 3031 4423 
Q 3450 4097 3450 3541 
Q 3450 3153 3228 2886 
Q 3006 2619 2597 2516 
z
" transform="scale(0.015625)"/>
       </defs>
       <use xlink:href="#DejaVuSans-33"/>
      </g>
     </g>
    </g>
    <g id="ytick_5">
     <g id="line2d_11">
      <g>
       <use xlink:href="#m5600a4afe5" x="80.28" y="90.680782" style="stroke: #000000; stroke-width: 0.8"/>
      </g>
     </g>
     <g id="text_5">
      <!-- 4 -->
      <g transform="translate(63.1 96.759532) scale(0.16 -0.16)">
       <defs>
        <path id="DejaVuSans-34" d="M 2419 4116 
L 825 1625 
L 2419 1625 
L 2419 4116 
z
M 2253 4666 
L 3047 4666 
L 3047 1625 
L 3713 1625 
L 3713 1100 
L 3047 1100 
L 3047 0 
L 2419 0 
L 2419 1100 
L 313 1100 
L 313 1709 
L 2253 4666 
z
" transform="scale(0.015625)"/>
       </defs>
       <use xlink:href="#DejaVuSans-34"/>
      </g>
     </g>
    </g>
    <g id="ytick_6">
     <g id="line2d_12">
      <g>
       <use xlink:href="#m5600a4afe5" x="80.28" y="34.175978" style="stroke: #000000; stroke-width: 0.8"/>
      </g>
     </g>
     <g id="text_6">
      <!-- 5 -->
      <g transform="translate(63.1 40.254728) scale(0.16 -0.16)">
       <defs>
        <path id="DejaVuSans-35" d="M 691 4666 
L 3169 4666 
L 3169 4134 
L 1269 4134 
L 1269 2991 
Q 1406 3038 1543 3061 
Q 1681 3084 1819 3084 
Q 2600 3084 3056 2656 
Q 3513 2228 3513 1497 
Q 3513 744 3044 326 
Q 2575 -91 1722 -91 
Q 1428 -91 1123 -41 
Q 819 9 494 109 
L 494 744 
Q 775 591 1075 516 
Q 1375 441 1709 441 
Q 2250 441 2565 725 
Q 2881 1009 2881 1497 
Q 2881 1984 2565 2268 
Q 2250 2553 1709 2553 
Q 1456 2553 1204 2497 
Q 953 2441 691 2322 
L 691 4666 
z
" transform="scale(0.015625)"/>
       </defs>
       <use xlink:href="#DejaVuSans-35"/>
      </g>
     </g>
    </g>
   </g>
   <g id="line2d_13">
    <path d="M 105.083 260.195196 
L 109.592636 260.195196 
L 114.102273 260.195196 
L 118.611909 260.195196 
L 123.121545 260.195196 
L 127.631182 260.195196 
L 132.140818 260.195196 
L 136.650455 260.195196 
L 141.160091 260.195196 
L 145.669727 260.195196 
L 150.179364 260.195196 
L 154.689 260.195196 
L 159.198636 260.195196 
L 163.708273 260.195196 
L 168.217909 260.195196 
L 172.727545 260.195196 
L 177.237182 260.195196 
L 181.746818 260.195196 
L 186.256455 260.195196 
L 190.766091 260.195196 
L 195.275727 260.195196 
L 199.785364 260.195196 
L 204.295 260.195196 
L 208.804636 260.195196 
L 213.314273 260.195196 
L 217.823909 260.195196 
L 222.333545 260.195196 
L 226.843182 260.195196 
L 231.352818 260.195196 
L 235.862455 260.195196 
L 240.372091 260.195196 
L 244.881727 260.195196 
L 249.391364 260.195196 
L 253.901 260.195196 
L 258.410636 260.195196 
L 262.920273 260.195196 
L 267.429909 260.195196 
L 271.939545 260.195196 
L 276.449182 260.195196 
L 280.958818 260.195196 
L 285.468455 260.195196 
L 289.978091 260.195196 
L 294.487727 260.195196 
L 298.997364 260.195196 
L 303.507 260.195196 
L 308.016636 260.195196 
L 312.526273 260.195196 
L 317.035909 260.195196 
L 321.545545 260.195196 
L 326.055182 260.195196 
L 330.564818 260.195196 
L 335.074455 260.195196 
L 339.584091 260.195196 
L 344.093727 260.195196 
L 348.603364 260.195196 
L 353.113 260.195196 
L 357.622636 260.195196 
L 362.132273 260.195196 
L 366.641909 260.195196 
L 371.151545 260.195196 
L 375.661182 260.195196 
L 380.170818 260.195196 
L 384.680455 260.195196 
L 389.190091 260.195196 
L 393.699727 260.195196 
L 398.209364 260.195196 
L 402.719 260.195196 
L 407.228636 260.195196 
L 411.738273 260.195196 
L 416.247909 260.195196 
L 420.757545 260.195196 
L 425.267182 260.195196 
L 429.776818 260.195196 
L 434.286455 260.195196 
L 438.796091 260.195196 
L 443.305727 260.195196 
L 447.815364 260.195196 
L 452.325 260.195196 
L 456.834636 260.195196 
L 461.344273 260.195196 
L 465.853909 260.195196 
L 470.363545 260.195196 
L 474.873182 260.195196 
L 479.382818 260.195196 
L 483.892455 260.195196 
L 488.402091 260.195196 
L 492.911727 260.195196 
L 497.421364 260.195196 
L 501.931 260.195196 
L 506.440636 260.195196 
L 510.950273 260.195196 
L 515.459909 260.195196 
L 519.969545 260.195196 
L 524.479182 260.195196 
L 528.988818 260.195196 
L 533.498455 260.195196 
L 538.008091 260.195196 
L 542.517727 260.195196 
L 547.027364 260.195196 
L 551.537 260.195196 
" clip-path="url(#p723c5123b9)" style="fill: none; stroke: #008000; stroke-width: 3; stroke-linecap: square"/>
   </g>
   <g id="patch_203">
    <path d="M 80.28 316.7 
L 80.28 7.2 
" style="fill: none; stroke: #000000; stroke-width: 1.1; stroke-linejoin: miter; stroke-linecap: square"/>
   </g>
   <g id="patch_204">
    <path d="M 576.34 316.7 
L 576.34 7.2 
" style="fill: none; stroke: #000000; stroke-width: 1.1; stroke-linejoin: miter; stroke-linecap: square"/>
   </g>
   <g id="patch_205">
    <path d="M 80.28 316.7 
L 576.34 316.7 
" style="fill: none; stroke: #000000; stroke-width: 1.1; stroke-linejoin: miter; stroke-linecap: square"/>
   </g>
   <g id="patch_206">
    <path d="M 80.28 7.2 
L 576.34 7.2 
" style="fill: none; stroke: #000000; stroke-width: 1.1; stroke-linejoin: miter; stroke-linecap: square"/>
   </g>
   <g id="legend_1">
    <g id="patch_207">
     <path d="M 328.3025 66.97 
L 565.14 66.97 
Q 568.34 66.97 568.34 63.77 
L 568.34 18.4 
Q 568.34 15.2 565.14 15.2 
L 328.3025 15.2 
Q 325.1025 15.2 325.1025 18.4 
L 325.1025 63.77 
Q 325.1025 66.97 328.3025 66.97 
z
" style="fill: #ffffff; opacity: 0.8; stroke: #cccccc; stroke-linejoin: miter"/>
    </g>
    <g id="patch_208">
     <path d="M 331.5025 33.7575 
L 363.5025 33.7575 
L 363.5025 22.5575 
L 331.5025 22.5575 
z
" style="fill: #1f77b4; opacity: 0.85"/>
    </g>
    <g id="text_7">
     <!-- Observed distribution -->
     <g transform="translate(376.3025 33.7575) scale(0.16 -0.16)">
      <defs>
       <path id="DejaVuSans-4f" d="M 2522 4238 
Q 1834 4238 1429 3725 
Q 1025 3213 1025 2328 
Q 1025 1447 1429 934 
Q 1834 422 2522 422 
Q 3209 422 3611 934 
Q 4013 1447 4013 2328 
Q 4013 3213 3611 3725 
Q 3209 4238 2522 4238 
z
M 2522 4750 
Q 3503 4750 4090 4092 
Q 4678 3434 4678 2328 
Q 4678 1225 4090 567 
Q 3503 -91 2522 -91 
Q 1538 -91 948 565 
Q 359 1222 359 2328 
Q 359 3434 948 4092 
Q 1538 4750 2522 4750 
z
" transform="scale(0.015625)"/>
       <path id="DejaVuSans-62" d="M 3116 1747 
Q 3116 2381 2855 2742 
Q 2594 3103 2138 3103 
Q 1681 3103 1420 2742 
Q 1159 2381 1159 1747 
Q 1159 1113 1420 752 
Q 1681 391 2138 391 
Q 2594 391 2855 752 
Q 3116 1113 3116 1747 
z
M 1159 2969 
Q 1341 3281 1617 3432 
Q 1894 3584 2278 3584 
Q 2916 3584 3314 3078 
Q 3713 2572 3713 1747 
Q 3713 922 3314 415 
Q 2916 -91 2278 -91 
Q 1894 -91 1617 61 
Q 1341 213 1159 525 
L 1159 0 
L 581 0 
L 581 4863 
L 1159 4863 
L 1159 2969 
z
" transform="scale(0.015625)"/>
       <path id="DejaVuSans-73" d="M 2834 3397 
L 2834 2853 
Q 2591 2978 2328 3040 
Q 2066 3103 1784 3103 
Q 1356 3103 1142 2972 
Q 928 2841 928 2578 
Q 928 2378 1081 2264 
Q 1234 2150 1697 2047 
L 1894 2003 
Q 2506 1872 2764 1633 
Q 3022 1394 3022 966 
Q 3022 478 2636 193 
Q 2250 -91 1575 -91 
Q 1294 -91 989 -36 
Q 684 19 347 128 
L 347 722 
Q 666 556 975 473 
Q 1284 391 1588 391 
Q 1994 391 2212 530 
Q 2431 669 2431 922 
Q 2431 1156 2273 1281 
Q 2116 1406 1581 1522 
L 1381 1569 
Q 847 1681 609 1914 
Q 372 2147 372 2553 
Q 372 3047 722 3315 
Q 1072 3584 1716 3584 
Q 2034 3584 2315 3537 
Q 2597 3491 2834 3397 
z
" transform="scale(0.015625)"/>
       <path id="DejaVuSans-65" d="M 3597 1894 
L 3597 1613 
L 953 1613 
Q 991 1019 1311 708 
Q 1631 397 2203 397 
Q 2534 397 2845 478 
Q 3156 559 3463 722 
L 3463 178 
Q 3153 47 2828 -22 
Q 2503 -91 2169 -91 
Q 1331 -91 842 396 
Q 353 884 353 1716 
Q 353 2575 817 3079 
Q 1281 3584 2069 3584 
Q 2775 3584 3186 3129 
Q 3597 2675 3597 1894 
z
M 3022 2063 
Q 3016 2534 2758 2815 
Q 2500 3097 2075 3097 
Q 1594 3097 1305 2825 
Q 1016 2553 972 2059 
L 3022 2063 
z
" transform="scale(0.015625)"/>
       <path id="DejaVuSans-72" d="M 2631 2963 
Q 2534 3019 2420 3045 
Q 2306 3072 2169 3072 
Q 1681 3072 1420 2755 
Q 1159 2438 1159 1844 
L 1159 0 
L 581 0 
L 581 3500 
L 1159 3500 
L 1159 2956 
Q 1341 3275 1631 3429 
Q 1922 3584 2338 3584 
Q 2397 3584 2469 3576 
Q 2541 3569 2628 3553 
L 2631 2963 
z
" transform="scale(0.015625)"/>
       <path id="DejaVuSans-76" d="M 191 3500 
L 800 3500 
L 1894 563 
L 2988 3500 
L 3597 3500 
L 2284 0 
L 1503 0 
L 191 3500 
z
" transform="scale(0.015625)"/>
       <path id="DejaVuSans-64" d="M 2906 2969 
L 2906 4863 
L 3481 4863 
L 3481 0 
L 2906 0 
L 2906 525 
Q 2725 213 2448 61 
Q 2172 -91 1784 -91 
Q 1150 -91 751 415 
Q 353 922 353 1747 
Q 353 2572 751 3078 
Q 1150 3584 1784 3584 
Q 2172 3584 2448 3432 
Q 2725 3281 2906 2969 
z
M 947 1747 
Q 947 1113 1208 752 
Q 1469 391 1925 391 
Q 2381 391 2643 752 
Q 2906 1113 2906 1747 
Q 2906 2381 2643 2742 
Q 2381 3103 1925 3103 
Q 1469 3103 1208 2742 
Q 947 2381 947 1747 
z
" transform="scale(0.015625)"/>
       <path id="DejaVuSans-20" transform="scale(0.015625)"/>
       <path id="DejaVuSans-69" d="M 603 3500 
L 1178 3500 
L 1178 0 
L 603 0 
L 603 3500 
z
M 603 4863 
L 1178 4863 
L 1178 4134 
L 603 4134 
L 603 4863 
z
" transform="scale(0.015625)"/>
       <path id="DejaVuSans-74" d="M 1172 4494 
L 1172 3500 
L 2356 3500 
L 2356 3053 
L 1172 3053 
L 1172 1153 
Q 1172 725 1289 603 
Q 1406 481 1766 481 
L 2356 481 
L 2356 0 
L 1766 0 
Q 1100 0 847 248 
Q 594 497 594 1153 
L 594 3053 
L 172 3053 
L 172 3500 
L 594 3500 
L 594 4494 
L 1172 4494 
z
" transform="scale(0.015625)"/>
       <path id="DejaVuSans-75" d="M 544 1381 
L 544 3500 
L 1119 3500 
L 1119 1403 
Q 1119 906 1312 657 
Q 1506 409 1894 409 
Q 2359 409 2629 706 
Q 2900 1003 2900 1516 
L 2900 3500 
L 3475 3500 
L 3475 0 
L 2900 0 
L 2900 538 
Q 2691 219 2414 64 
Q 2138 -91 1772 -91 
Q 1169 -91 856 284 
Q 544 659 544 1381 
z
M 1991 3584 
L 1991 3584 
z
" transform="scale(0.015625)"/>
       <path id="DejaVuSans-6f" d="M 1959 3097 
Q 1497 3097 1228 2736 
Q 959 2375 959 1747 
Q 959 1119 1226 758 
Q 1494 397 1959 397 
Q 2419 397 2687 759 
Q 2956 1122 2956 1747 
Q 2956 2369 2687 2733 
Q 2419 3097 1959 3097 
z
M 1959 3584 
Q 2709 3584 3137 3096 
Q 3566 2609 3566 1747 
Q 3566 888 3137 398 
Q 2709 -91 1959 -91 
Q 1206 -91 779 398 
Q 353 888 353 1747 
Q 353 2609 779 3096 
Q 1206 3584 1959 3584 
z
" transform="scale(0.015625)"/>
       <path id="DejaVuSans-6e" d="M 3513 2113 
L 3513 0 
L 2938 0 
L 2938 2094 
Q 2938 2591 2744 2837 
Q 2550 3084 2163 3084 
Q 1697 3084 1428 2787 
Q 1159 2491 1159 1978 
L 1159 0 
L 581 0 
L 581 3500 
L 1159 3500 
L 1159 2956 
Q 1366 3272 1645 3428 
Q 1925 3584 2291 3584 
Q 2894 3584 3203 3211 
Q 3513 2838 3513 2113 
z
" transform="scale(0.015625)"/>
      </defs>
      <use xlink:href="#DejaVuSans-4f"/>
      <use xlink:href="#DejaVuSans-62" transform="translate(78.710938 0)"/>
      <use xlink:href="#DejaVuSans-73" transform="translate(142.1875 0)"/>
      <use xlink:href="#DejaVuSans-65" transform="translate(194.287109 0)"/>
      <use xlink:href="#DejaVuSans-72" transform="translate(255.810547 0)"/>
      <use xlink:href="#DejaVuSans-76" transform="translate(296.923828 0)"/>
      <use xlink:href="#DejaVuSans-65" transform="translate(356.103516 0)"/>
      <use xlink:href="#DejaVuSans-64" transform="translate(417.626953 0)"/>
      <use xlink:href="#DejaVuSans-20" transform="translate(481.103516 0)"/>
      <use xlink:href="#DejaVuSans-64" transform="translate(512.890625 0)"/>
      <use xlink:href="#DejaVuSans-69" transform="translate(576.367188 0)"/>
      <use xlink:href="#DejaVuSans-73" transform="translate(604.150391 0)"/>
      <use xlink:href="#DejaVuSans-74" transform="translate(656.25 0)"/>
      <use xlink:href="#DejaVuSans-72" transform="translate(695.458984 0)"/>
      <use xlink:href="#DejaVuSans-69" transform="translate(736.572266 0)"/>
      <use xlink:href="#DejaVuSans-62" transform="translate(764.355469 0)"/>
      <use xlink:href="#DejaVuSans-75" transform="translate(827.832031 0)"/>
      <use xlink:href="#DejaVuSans-74" transform="translate(891.210938 0)"/>
      <use xlink:href="#DejaVuSans-69" transform="translate(930.419922 0)"/>
      <use xlink:href="#DejaVuSans-6f" transform="translate(958.203125 0)"/>
      <use xlink:href="#DejaVuSans-6e" transform="translate(1019.384766 0)"/>
     </g>
    </g>
    <g id="patch_209">
     <path d="M 331.5025 57.2425 
L 363.5025 57.2425 
L 363.5025 46.0425 
L 331.5025 46.0425 
z
" style="fill: #ff7f0e; opacity: 0.5"/>
    </g>
    <g id="text_8">
     <!-- Theoretical distribution -->
     <g transform="translate(376.3025 57.2425) scale(0.16 -0.16)">
      <defs>
       <path id="DejaVuSans-54" d="M -19 4666 
L 3928 4666 
L 3928 4134 
L 2272 4134 
L 2272 0 
L 1638 0 
L 1638 4134 
L -19 4134 
L -19 4666 
z
" transform="scale(0.015625)"/>
       <path id="DejaVuSans-68" d="M 3513 2113 
L 3513 0 
L 2938 0 
L 2938 2094 
Q 2938 2591 2744 2837 
Q 2550 3084 2163 3084 
Q 1697 3084 1428 2787 
Q 1159 2491 1159 1978 
L 1159 0 
L 581 0 
L 581 4863 
L 1159 4863 
L 1159 2956 
Q 1366 3272 1645 3428 
Q 1925 3584 2291 3584 
Q 2894 3584 3203 3211 
Q 3513 2838 3513 2113 
z
" transform="scale(0.015625)"/>
       <path id="DejaVuSans-63" d="M 3122 3366 
L 3122 2828 
Q 2878 2963 2633 3030 
Q 2388 3097 2138 3097 
Q 1578 3097 1268 2742 
Q 959 2388 959 1747 
Q 959 1106 1268 751 
Q 1578 397 2138 397 
Q 2388 397 2633 464 
Q 2878 531 3122 666 
L 3122 134 
Q 2881 22 2623 -34 
Q 2366 -91 2075 -91 
Q 1284 -91 818 406 
Q 353 903 353 1747 
Q 353 2603 823 3093 
Q 1294 3584 2113 3584 
Q 2378 3584 2631 3529 
Q 2884 3475 3122 3366 
z
" transform="scale(0.015625)"/>
       <path id="DejaVuSans-61" d="M 2194 1759 
Q 1497 1759 1228 1600 
Q 959 1441 959 1056 
Q 959 750 1161 570 
Q 1363 391 1709 391 
Q 2188 391 2477 730 
Q 2766 1069 2766 1631 
L 2766 1759 
L 2194 1759 
z
M 3341 1997 
L 3341 0 
L 2766 0 
L 2766 531 
Q 2569 213 2275 61 
Q 1981 -91 1556 -91 
Q 1019 -91 701 211 
Q 384 513 384 1019 
Q 384 1609 779 1909 
Q 1175 2209 1959 2209 
L 2766 2209 
L 2766 2266 
Q 2766 2663 2505 2880 
Q 2244 3097 1772 3097 
Q 1472 3097 1187 3025 
Q 903 2953 641 2809 
L 641 3341 
Q 956 3463 1253 3523 
Q 1550 3584 1831 3584 
Q 2591 3584 2966 3190 
Q 3341 2797 3341 1997 
z
" transform="scale(0.015625)"/>
       <path id="DejaVuSans-6c" d="M 603 4863 
L 1178 4863 
L 1178 0 
L 603 0 
L 603 4863 
z
" transform="scale(0.015625)"/>
      </defs>
      <use xlink:href="#DejaVuSans-54"/>
      <use xlink:href="#DejaVuSans-68" transform="translate(61.083984 0)"/>
      <use xlink:href="#DejaVuSans-65" transform="translate(124.462891 0)"/>
      <use xlink:href="#DejaVuSans-6f" transform="translate(185.986328 0)"/>
      <use xlink:href="#DejaVuSans-72" transform="translate(247.167969 0)"/>
      <use xlink:href="#DejaVuSans-65" transform="translate(286.03125 0)"/>
      <use xlink:href="#DejaVuSans-74" transform="translate(347.554688 0)"/>
      <use xlink:href="#DejaVuSans-69" transform="translate(386.763672 0)"/>
      <use xlink:href="#DejaVuSans-63" transform="translate(414.546875 0)"/>
      <use xlink:href="#DejaVuSans-61" transform="translate(469.527344 0)"/>
      <use xlink:href="#DejaVuSans-6c" transform="translate(530.806641 0)"/>
      <use xlink:href="#DejaVuSans-20" transform="translate(558.589844 0)"/>
      <use xlink:href="#DejaVuSans-64" transform="translate(590.376953 0)"/>
      <use xlink:href="#DejaVuSans-69" transform="translate(653.853516 0)"/>
      <use xlink:href="#DejaVuSans-73" transform="translate(681.636719 0)"/>
      <use xlink:href="#DejaVuSans-74" transform="translate(733.736328 0)"/>
      <use xlink:href="#DejaVuSans-72" transform="translate(772.945312 0)"/>
      <use xlink:href="#DejaVuSans-69" transform="translate(814.058594 0)"/>
      <use xlink:href="#DejaVuSans-62" transform="translate(841.841797 0)"/>
      <use xlink:href="#DejaVuSans-75" transform="translate(905.318359 0)"/>
      <use xlink:href="#DejaVuSans-74" transform="translate(968.697266 0)"/>
      <use xlink:href="#DejaVuSans-69" transform="translate(1007.90625 0)"/>
      <use xlink:href="#DejaVuSans-6f" transform="translate(1035.689453 0)"/>
      <use xlink:href="#DejaVuSans-6e" transform="translate(1096.871094 0)"/>
     </g>
    </g>
   </g>
  </g>
  <g id="axes_2">
   <g id="patch_210">
    <path d="M 80.28 645.64 
L 576.34 645.64 
L 576.34 336.14 
L 80.28 336.14 
L 80.28 645.64 
z
" style="fill: none"/>
   </g>
   <g id="patch_211">
    <path d="M 102.828182 543.2201 
L 107.337818 543.2201 
L 107.337818 350.208182 
L 102.828182 350.208182 
z
" clip-path="url(#pef406bdf1f)" style="fill: #9467bd"/>
   </g>
   <g id="patch_212">
    <path d="M 107.337818 543.2201 
L 111.847455 543.2201 
L 111.847455 631.571818 
L 107.337818 631.571818 
z
" clip-path="url(#pef406bdf1f)" style="fill: #d62728"/>
   </g>
   <g id="patch_213">
    <path d="M 111.847455 543.2201 
L 116.357091 543.2201 
L 116.357091 612.231299 
L 111.847455 612.231299 
z
" clip-path="url(#pef406bdf1f)" style="fill: #d62728"/>
   </g>
   <g id="patch_214">
    <path d="M 116.357091 543.2201 
L 120.866727 543.2201 
L 120.866727 579.176225 
L 116.357091 579.176225 
z
" clip-path="url(#pef406bdf1f)" style="fill: #d62728"/>
   </g>
   <g id="patch_215">
    <path d="M 120.866727 543.2201 
L 125.376364 543.2201 
L 125.376364 581.709986 
L 120.866727 581.709986 
z
" clip-path="url(#pef406bdf1f)" style="fill: #d62728"/>
   </g>
   <g id="patch_216">
    <path d="M 125.376364 543.2201 
L 129.886 543.2201 
L 129.886 571.518715 
L 125.376364 571.518715 
z
" clip-path="url(#pef406bdf1f)" style="fill: #d62728"/>
   </g>
   <g id="patch_217">
    <path d="M 129.886 543.2201 
L 134.395636 543.2201 
L 134.395636 551.570979 
L 129.886 551.570979 
z
" clip-path="url(#pef406bdf1f)" style="fill: #d62728"/>
   </g>
   <g id="patch_218">
    <path d="M 134.395636 543.2201 
L 138.905273 543.2201 
L 138.905273 573.137924 
L 134.395636 573.137924 
z
" clip-path="url(#pef406bdf1f)" style="fill: #d62728"/>
   </g>
   <g id="patch_219">
    <path d="M 138.905273 543.2201 
L 143.414909 543.2201 
L 143.414909 547.894028 
L 138.905273 547.894028 
z
" clip-path="url(#pef406bdf1f)" style="fill: #d62728"/>
   </g>
   <g id="patch_220">
    <path d="M 143.414909 543.2201 
L 147.924545 543.2201 
L 147.924545 563.97366 
L 143.414909 563.97366 
z
" clip-path="url(#pef406bdf1f)" style="fill: #d62728"/>
   </g>
   <g id="patch_221">
    <path d="M 147.924545 543.2201 
L 152.434182 543.2201 
L 152.434182 531.814396 
L 147.924545 531.814396 
z
" clip-path="url(#pef406bdf1f)" style="fill: #9467bd"/>
   </g>
   <g id="patch_222">
    <path d="M 152.434182 543.2201 
L 156.943818 543.2201 
L 156.943818 583.100557 
L 152.434182 583.100557 
z
" clip-path="url(#pef406bdf1f)" style="fill: #d62728"/>
   </g>
   <g id="patch_223">
    <path d="M 156.943818 543.2201 
L 161.453455 543.2201 
L 161.453455 558.962366 
L 156.943818 558.962366 
z
" clip-path="url(#pef406bdf1f)" style="fill: #d62728"/>
   </g>
   <g id="patch_224">
    <path d="M 161.453455 543.2201 
L 165.963091 543.2201 
L 165.963091 552.485531 
L 161.453455 552.485531 
z
" clip-path="url(#pef406bdf1f)" style="fill: #d62728"/>
   </g>
   <g id="patch_225">
    <path d="M 165.963091 543.2201 
L 170.472727 543.2201 
L 170.472727 551.799617 
L 165.963091 551.799617 
z
" clip-path="url(#pef406bdf1f)" style="fill: #d62728"/>
   </g>
   <g id="patch_226">
    <path d="M 170.472727 543.2201 
L 174.982364 543.2201 
L 174.982364 534.119519 
L 170.472727 534.119519 
z
" clip-path="url(#pef406bdf1f)" style="fill: #9467bd"/>
   </g>
   <g id="patch_227">
    <path d="M 174.982364 543.2201 
L 179.492 543.2201 
L 179.492 551.552237 
L 174.982364 551.552237 
z
" clip-path="url(#pef406bdf1f)" style="fill: #d62728"/>
   </g>
   <g id="patch_228">
    <path d="M 179.492 543.2201 
L 184.001636 543.2201 
L 184.001636 555.00055 
L 179.492 555.00055 
z
" clip-path="url(#pef406bdf1f)" style="fill: #d62728"/>
   </g>
   <g id="patch_229">
    <path d="M 184.001636 543.2201 
L 188.511273 543.2201 
L 188.511273 553.227673 
L 184.001636 553.227673 
z
" clip-path="url(#pef406bdf1f)" style="fill: #d62728"/>
   </g>
   <g id="patch_230">
    <path d="M 188.511273 543.2201 
L 193.020909 543.2201 
L 193.020909 540.712537 
L 188.511273 540.712537 
z
" clip-path="url(#pef406bdf1f)" style="fill: #9467bd"/>
   </g>
   <g id="patch_231">
    <path d="M 193.020909 543.2201 
L 197.530545 543.2201 
L 197.530545 555.191702 
L 193.020909 555.191702 
z
" clip-path="url(#pef406bdf1f)" style="fill: #d62728"/>
   </g>
   <g id="patch_232">
    <path d="M 197.530545 543.2201 
L 202.040182 543.2201 
L 202.040182 542.845249 
L 197.530545 542.845249 
z
" clip-path="url(#pef406bdf1f)" style="fill: #9467bd"/>
   </g>
   <g id="patch_233">
    <path d="M 202.040182 543.2201 
L 206.549818 543.2201 
L 206.549818 537.758985 
L 202.040182 537.758985 
z
" clip-path="url(#pef406bdf1f)" style="fill: #9467bd"/>
   </g>
   <g id="patch_234">
    <path d="M 206.549818 543.2201 
L 211.059455 543.2201 
L 211.059455 534.329414 
L 206.549818 534.329414 
z
" clip-path="url(#pef406bdf1f)" style="fill: #9467bd"/>
   </g>
   <g id="patch_235">
    <path d="M 211.059455 543.2201 
L 215.569091 543.2201 
L 215.569091 541.874469 
L 211.059455 541.874469 
z
" clip-path="url(#pef406bdf1f)" style="fill: #9467bd"/>
   </g>
   <g id="patch_236">
    <path d="M 215.569091 543.2201 
L 220.078727 543.2201 
L 220.078727 527.414046 
L 215.569091 527.414046 
z
" clip-path="url(#pef406bdf1f)" style="fill: #9467bd"/>
   </g>
   <g id="patch_237">
    <path d="M 220.078727 543.2201 
L 224.588364 543.2201 
L 224.588364 568.812544 
L 220.078727 568.812544 
z
" clip-path="url(#pef406bdf1f)" style="fill: #d62728"/>
   </g>
   <g id="patch_238">
    <path d="M 224.588364 543.2201 
L 229.098 543.2201 
L 229.098 508.343377 
L 224.588364 508.343377 
z
" clip-path="url(#pef406bdf1f)" style="fill: #9467bd"/>
   </g>
   <g id="patch_239">
    <path d="M 229.098 543.2201 
L 233.607636 543.2201 
L 233.607636 537.492862 
L 229.098 537.492862 
z
" clip-path="url(#pef406bdf1f)" style="fill: #9467bd"/>
   </g>
   <g id="patch_240">
    <path d="M 233.607636 543.2201 
L 238.117273 543.2201 
L 238.117273 517.316488 
L 233.607636 517.316488 
z
" clip-path="url(#pef406bdf1f)" style="fill: #9467bd"/>
   </g>
   <g id="patch_241">
    <path d="M 238.117273 543.2201 
L 242.626909 543.2201 
L 242.626909 501.656647 
L 238.117273 501.656647 
z
" clip-path="url(#pef406bdf1f)" style="fill: #9467bd"/>
   </g>
   <g id="patch_242">
    <path d="M 242.626909 543.2201 
L 247.136545 543.2201 
L 247.136545 523.298562 
L 242.626909 523.298562 
z
" clip-path="url(#pef406bdf1f)" style="fill: #9467bd"/>
   </g>
   <g id="patch_243">
    <path d="M 247.136545 543.2201 
L 251.646182 543.2201 
L 251.646182 526.270856 
L 247.136545 526.270856 
z
" clip-path="url(#pef406bdf1f)" style="fill: #9467bd"/>
   </g>
   <g id="patch_244">
    <path d="M 251.646182 543.2201 
L 256.155818 543.2201 
L 256.155818 538.636052 
L 251.646182 538.636052 
z
" clip-path="url(#pef406bdf1f)" style="fill: #9467bd"/>
   </g>
   <g id="patch_245">
    <path d="M 256.155818 543.2201 
L 260.665455 543.2201 
L 260.665455 532.50031 
L 256.155818 532.50031 
z
" clip-path="url(#pef406bdf1f)" style="fill: #9467bd"/>
   </g>
   <g id="patch_246">
    <path d="M 260.665455 543.2201 
L 265.175091 543.2201 
L 265.175091 552.96155 
L 260.665455 552.96155 
z
" clip-path="url(#pef406bdf1f)" style="fill: #d62728"/>
   </g>
   <g id="patch_247">
    <path d="M 265.175091 543.2201 
L 269.684727 543.2201 
L 269.684727 543.722316 
L 265.175091 543.722316 
z
" clip-path="url(#pef406bdf1f)" style="fill: #d62728"/>
   </g>
   <g id="patch_248">
    <path d="M 269.684727 543.2201 
L 274.194364 543.2201 
L 274.194364 537.511604 
L 269.684727 537.511604 
z
" clip-path="url(#pef406bdf1f)" style="fill: #9467bd"/>
   </g>
   <g id="patch_249">
    <path d="M 274.194364 543.2201 
L 278.704 543.2201 
L 278.704 519.145592 
L 274.194364 519.145592 
z
" clip-path="url(#pef406bdf1f)" style="fill: #9467bd"/>
   </g>
   <g id="patch_250">
    <path d="M 278.704 543.2201 
L 283.213636 543.2201 
L 283.213636 508.838138 
L 278.704 508.838138 
z
" clip-path="url(#pef406bdf1f)" style="fill: #9467bd"/>
   </g>
   <g id="patch_251">
    <path d="M 283.213636 543.2201 
L 287.723273 543.2201 
L 287.723273 483.957806 
L 283.213636 483.957806 
z
" clip-path="url(#pef406bdf1f)" style="fill: #9467bd"/>
   </g>
   <g id="patch_252">
    <path d="M 287.723273 543.2201 
L 292.232909 543.2201 
L 292.232909 556.372378 
L 287.723273 556.372378 
z
" clip-path="url(#pef406bdf1f)" style="fill: #d62728"/>
   </g>
   <g id="patch_253">
    <path d="M 292.232909 543.2201 
L 296.742545 543.2201 
L 296.742545 528.785874 
L 292.232909 528.785874 
z
" clip-path="url(#pef406bdf1f)" style="fill: #9467bd"/>
   </g>
   <g id="patch_254">
    <path d="M 296.742545 543.2201 
L 301.252182 543.2201 
L 301.252182 532.234187 
L 296.742545 532.234187 
z
" clip-path="url(#pef406bdf1f)" style="fill: #9467bd"/>
   </g>
   <g id="patch_255">
    <path d="M 301.252182 543.2201 
L 305.761818 543.2201 
L 305.761818 500.266076 
L 301.252182 500.266076 
z
" clip-path="url(#pef406bdf1f)" style="fill: #9467bd"/>
   </g>
   <g id="patch_256">
    <path d="M 305.761818 543.2201 
L 310.271455 543.2201 
L 310.271455 512.001585 
L 305.761818 512.001585 
z
" clip-path="url(#pef406bdf1f)" style="fill: #9467bd"/>
   </g>
   <g id="patch_257">
    <path d="M 310.271455 543.2201 
L 314.781091 543.2201 
L 314.781091 494.51264 
L 310.271455 494.51264 
z
" clip-path="url(#pef406bdf1f)" style="fill: #9467bd"/>
   </g>
   <g id="patch_258">
    <path d="M 314.781091 543.2201 
L 319.290727 543.2201 
L 319.290727 486.244186 
L 314.781091 486.244186 
z
" clip-path="url(#pef406bdf1f)" style="fill: #9467bd"/>
   </g>
   <g id="patch_259">
    <path d="M 319.290727 543.2201 
L 323.800364 543.2201 
L 323.800364 515.716022 
L 319.290727 515.716022 
z
" clip-path="url(#pef406bdf1f)" style="fill: #9467bd"/>
   </g>
   <g id="patch_260">
    <path d="M 323.800364 543.2201 
L 328.31 543.2201 
L 328.31 529.947807 
L 323.800364 529.947807 
z
" clip-path="url(#pef406bdf1f)" style="fill: #9467bd"/>
   </g>
   <g id="patch_261">
    <path d="M 328.31 543.2201 
L 332.819636 543.2201 
L 332.819636 520.993439 
L 328.31 520.993439 
z
" clip-path="url(#pef406bdf1f)" style="fill: #9467bd"/>
   </g>
   <g id="patch_262">
    <path d="M 332.819636 543.2201 
L 337.329273 543.2201 
L 337.329273 524.156886 
L 332.819636 524.156886 
z
" clip-path="url(#pef406bdf1f)" style="fill: #9467bd"/>
   </g>
   <g id="patch_263">
    <path d="M 337.329273 543.2201 
L 341.838909 543.2201 
L 341.838909 524.404267 
L 337.329273 524.404267 
z
" clip-path="url(#pef406bdf1f)" style="fill: #9467bd"/>
   </g>
   <g id="patch_264">
    <path d="M 341.838909 543.2201 
L 346.348545 543.2201 
L 346.348545 508.800653 
L 341.838909 508.800653 
z
" clip-path="url(#pef406bdf1f)" style="fill: #9467bd"/>
   </g>
   <g id="patch_265">
    <path d="M 346.348545 543.2201 
L 350.858182 543.2201 
L 350.858182 508.058511 
L 346.348545 508.058511 
z
" clip-path="url(#pef406bdf1f)" style="fill: #9467bd"/>
   </g>
   <g id="patch_266">
    <path d="M 350.858182 543.2201 
L 355.367818 543.2201 
L 355.367818 501.218113 
L 350.858182 501.218113 
z
" clip-path="url(#pef406bdf1f)" style="fill: #9467bd"/>
   </g>
   <g id="patch_267">
    <path d="M 355.367818 543.2201 
L 359.877455 543.2201 
L 359.877455 516.821727 
L 355.367818 516.821727 
z
" clip-path="url(#pef406bdf1f)" style="fill: #9467bd"/>
   </g>
   <g id="patch_268">
    <path d="M 359.877455 543.2201 
L 364.387091 543.2201 
L 364.387091 524.250599 
L 359.877455 524.250599 
z
" clip-path="url(#pef406bdf1f)" style="fill: #9467bd"/>
   </g>
   <g id="patch_269">
    <path d="M 364.387091 543.2201 
L 368.896727 543.2201 
L 368.896727 558.906139 
L 364.387091 558.906139 
z
" clip-path="url(#pef406bdf1f)" style="fill: #d62728"/>
   </g>
   <g id="patch_270">
    <path d="M 368.896727 543.2201 
L 373.406364 543.2201 
L 373.406364 536.158519 
L 368.896727 536.158519 
z
" clip-path="url(#pef406bdf1f)" style="fill: #9467bd"/>
   </g>
   <g id="patch_271">
    <path d="M 373.406364 543.2201 
L 377.916 543.2201 
L 377.916 528.538494 
L 373.406364 528.538494 
z
" clip-path="url(#pef406bdf1f)" style="fill: #9467bd"/>
   </g>
   <g id="patch_272">
    <path d="M 377.916 543.2201 
L 382.425636 543.2201 
L 382.425636 548.579942 
L 377.916 548.579942 
z
" clip-path="url(#pef406bdf1f)" style="fill: #d62728"/>
   </g>
   <g id="patch_273">
    <path d="M 382.425636 543.2201 
L 386.935273 543.2201 
L 386.935273 542.579126 
L 382.425636 542.579126 
z
" clip-path="url(#pef406bdf1f)" style="fill: #9467bd"/>
   </g>
   <g id="patch_274">
    <path d="M 386.935273 543.2201 
L 391.444909 543.2201 
L 391.444909 525.375046 
L 386.935273 525.375046 
z
" clip-path="url(#pef406bdf1f)" style="fill: #9467bd"/>
   </g>
   <g id="patch_275">
    <path d="M 391.444909 543.2201 
L 395.954545 543.2201 
L 395.954545 526.536979 
L 391.444909 526.536979 
z
" clip-path="url(#pef406bdf1f)" style="fill: #9467bd"/>
   </g>
   <g id="patch_276">
    <path d="M 395.954545 543.2201 
L 400.464182 543.2201 
L 400.464182 534.329414 
L 395.954545 534.329414 
z
" clip-path="url(#pef406bdf1f)" style="fill: #9467bd"/>
   </g>
   <g id="patch_277">
    <path d="M 400.464182 543.2201 
L 404.973818 543.2201 
L 404.973818 542.36923 
L 400.464182 542.36923 
z
" clip-path="url(#pef406bdf1f)" style="fill: #9467bd"/>
   </g>
   <g id="patch_278">
    <path d="M 404.973818 543.2201 
L 409.483455 543.2201 
L 409.483455 529.24315 
L 404.973818 529.24315 
z
" clip-path="url(#pef406bdf1f)" style="fill: #9467bd"/>
   </g>
   <g id="patch_279">
    <path d="M 409.483455 543.2201 
L 413.993091 543.2201 
L 413.993091 536.387157 
L 409.483455 536.387157 
z
" clip-path="url(#pef406bdf1f)" style="fill: #9467bd"/>
   </g>
   <g id="patch_280">
    <path d="M 413.993091 543.2201 
L 418.502727 543.2201 
L 418.502727 540.483899 
L 413.993091 540.483899 
z
" clip-path="url(#pef406bdf1f)" style="fill: #9467bd"/>
   </g>
   <g id="patch_281">
    <path d="M 418.502727 543.2201 
L 423.012364 543.2201 
L 423.012364 561.001366 
L 418.502727 561.001366 
z
" clip-path="url(#pef406bdf1f)" style="fill: #d62728"/>
   </g>
   <g id="patch_282">
    <path d="M 423.012364 543.2201 
L 427.522 543.2201 
L 427.522 546.713353 
L 423.012364 546.713353 
z
" clip-path="url(#pef406bdf1f)" style="fill: #d62728"/>
   </g>
   <g id="patch_283">
    <path d="M 427.522 543.2201 
L 432.031636 543.2201 
L 432.031636 550.217894 
L 427.522 550.217894 
z
" clip-path="url(#pef406bdf1f)" style="fill: #d62728"/>
   </g>
   <g id="patch_284">
    <path d="M 432.031636 543.2201 
L 436.541273 543.2201 
L 436.541273 544.426973 
L 432.031636 544.426973 
z
" clip-path="url(#pef406bdf1f)" style="fill: #d62728"/>
   </g>
   <g id="patch_285">
    <path d="M 436.541273 543.2201 
L 441.050909 543.2201 
L 441.050909 546.979476 
L 436.541273 546.979476 
z
" clip-path="url(#pef406bdf1f)" style="fill: #d62728"/>
   </g>
   <g id="patch_286">
    <path d="M 441.050909 543.2201 
L 445.560545 543.2201 
L 445.560545 554.753169 
L 441.050909 554.753169 
z
" clip-path="url(#pef406bdf1f)" style="fill: #d62728"/>
   </g>
   <g id="patch_287">
    <path d="M 445.560545 543.2201 
L 450.070182 543.2201 
L 450.070182 544.921734 
L 445.560545 544.921734 
z
" clip-path="url(#pef406bdf1f)" style="fill: #d62728"/>
   </g>
   <g id="patch_288">
    <path d="M 450.070182 543.2201 
L 454.579818 543.2201 
L 454.579818 522.136629 
L 450.070182 522.136629 
z
" clip-path="url(#pef406bdf1f)" style="fill: #9467bd"/>
   </g>
   <g id="patch_289">
    <path d="M 454.579818 543.2201 
L 459.089455 543.2201 
L 459.089455 529.985292 
L 454.579818 529.985292 
z
" clip-path="url(#pef406bdf1f)" style="fill: #9467bd"/>
   </g>
   <g id="patch_290">
    <path d="M 459.089455 543.2201 
L 463.599091 543.2201 
L 463.599091 579.386121 
L 459.089455 579.386121 
z
" clip-path="url(#pef406bdf1f)" style="fill: #d62728"/>
   </g>
   <g id="patch_291">
    <path d="M 463.599091 543.2201 
L 468.108727 543.2201 
L 468.108727 552.219408 
L 463.599091 552.219408 
z
" clip-path="url(#pef406bdf1f)" style="fill: #d62728"/>
   </g>
   <g id="patch_292">
    <path d="M 468.108727 543.2201 
L 472.618364 543.2201 
L 472.618364 567.193335 
L 468.108727 567.193335 
z
" clip-path="url(#pef406bdf1f)" style="fill: #d62728"/>
   </g>
   <g id="patch_293">
    <path d="M 472.618364 543.2201 
L 477.128 543.2201 
L 477.128 539.625574 
L 472.618364 539.625574 
z
" clip-path="url(#pef406bdf1f)" style="fill: #9467bd"/>
   </g>
   <g id="patch_294">
    <path d="M 477.128 543.2201 
L 481.637636 543.2201 
L 481.637636 566.964697 
L 477.128 566.964697 
z
" clip-path="url(#pef406bdf1f)" style="fill: #d62728"/>
   </g>
   <g id="patch_295">
    <path d="M 481.637636 543.2201 
L 486.147273 543.2201 
L 486.147273 582.834434 
L 481.637636 582.834434 
z
" clip-path="url(#pef406bdf1f)" style="fill: #d62728"/>
   </g>
   <g id="patch_296">
    <path d="M 486.147273 543.2201 
L 490.656909 543.2201 
L 490.656909 549.70439 
L 486.147273 549.70439 
z
" clip-path="url(#pef406bdf1f)" style="fill: #d62728"/>
   </g>
   <g id="patch_297">
    <path d="M 490.656909 543.2201 
L 495.166545 543.2201 
L 495.166545 559.64828 
L 490.656909 559.64828 
z
" clip-path="url(#pef406bdf1f)" style="fill: #d62728"/>
   </g>
   <g id="patch_298">
    <path d="M 495.166545 543.2201 
L 499.676182 543.2201 
L 499.676182 567.879249 
L 495.166545 567.879249 
z
" clip-path="url(#pef406bdf1f)" style="fill: #d62728"/>
   </g>
   <g id="patch_299">
    <path d="M 499.676182 543.2201 
L 504.185818 543.2201 
L 504.185818 540.255261 
L 499.676182 540.255261 
z
" clip-path="url(#pef406bdf1f)" style="fill: #9467bd"/>
   </g>
   <g id="patch_300">
    <path d="M 504.185818 543.2201 
L 508.695455 543.2201 
L 508.695455 554.562016 
L 504.185818 554.562016 
z
" clip-path="url(#pef406bdf1f)" style="fill: #d62728"/>
   </g>
   <g id="patch_301">
    <path d="M 508.695455 543.2201 
L 513.205091 543.2201 
L 513.205091 550.199151 
L 508.695455 550.199151 
z
" clip-path="url(#pef406bdf1f)" style="fill: #d62728"/>
   </g>
   <g id="patch_302">
    <path d="M 513.205091 543.2201 
L 517.714727 543.2201 
L 517.714727 581.233968 
L 513.205091 581.233968 
z
" clip-path="url(#pef406bdf1f)" style="fill: #d62728"/>
   </g>
   <g id="patch_303">
    <path d="M 517.714727 543.2201 
L 522.224364 543.2201 
L 522.224364 587.463422 
L 517.714727 587.463422 
z
" clip-path="url(#pef406bdf1f)" style="fill: #d62728"/>
   </g>
   <g id="patch_304">
    <path d="M 522.224364 543.2201 
L 526.734 543.2201 
L 526.734 562.792985 
L 522.224364 562.792985 
z
" clip-path="url(#pef406bdf1f)" style="fill: #d62728"/>
   </g>
   <g id="patch_305">
    <path d="M 526.734 543.2201 
L 531.243636 543.2201 
L 531.243636 566.526164 
L 526.734 566.526164 
z
" clip-path="url(#pef406bdf1f)" style="fill: #d62728"/>
   </g>
   <g id="patch_306">
    <path d="M 531.243636 543.2201 
L 535.753273 543.2201 
L 535.753273 583.310452 
L 531.243636 583.310452 
z
" clip-path="url(#pef406bdf1f)" style="fill: #d62728"/>
   </g>
   <g id="patch_307">
    <path d="M 535.753273 543.2201 
L 540.262909 543.2201 
L 540.262909 595.941771 
L 535.753273 595.941771 
z
" clip-path="url(#pef406bdf1f)" style="fill: #d62728"/>
   </g>
   <g id="patch_308">
    <path d="M 540.262909 543.2201 
L 544.772545 543.2201 
L 544.772545 590.416974 
L 540.262909 590.416974 
z
" clip-path="url(#pef406bdf1f)" style="fill: #d62728"/>
   </g>
   <g id="patch_309">
    <path d="M 544.772545 543.2201 
L 549.282182 543.2201 
L 549.282182 585.844213 
L 544.772545 585.844213 
z
" clip-path="url(#pef406bdf1f)" style="fill: #d62728"/>
   </g>
   <g id="patch_310">
    <path d="M 549.282182 543.2201 
L 553.791818 543.2201 
L 553.791818 606.953882 
L 549.282182 606.953882 
z
" clip-path="url(#pef406bdf1f)" style="fill: #d62728"/>
   </g>
   <g id="matplotlib.axis_3">
    <g id="xtick_7">
     <g id="line2d_14">
      <g>
       <use xlink:href="#m4bc08f07a8" x="102.828182" y="645.64" style="stroke: #000000; stroke-width: 0.8"/>
      </g>
     </g>
     <g id="text_9">
      <!-- 0.0 -->
      <g transform="translate(90.105682 664.7975) scale(0.16 -0.16)">
       <defs>
        <path id="DejaVuSans-2e" d="M 684 794 
L 1344 794 
L 1344 0 
L 684 0 
L 684 794 
z
" transform="scale(0.015625)"/>
       </defs>
       <use xlink:href="#DejaVuSans-30"/>
       <use xlink:href="#DejaVuSans-2e" transform="translate(63.623047 0)"/>
       <use xlink:href="#DejaVuSans-30" transform="translate(95.410156 0)"/>
      </g>
     </g>
    </g>
    <g id="xtick_8">
     <g id="line2d_15">
      <g>
       <use xlink:href="#m4bc08f07a8" x="193.020909" y="645.64" style="stroke: #000000; stroke-width: 0.8"/>
      </g>
     </g>
     <g id="text_10">
      <!-- 0.2 -->
      <g transform="translate(180.298409 664.7975) scale(0.16 -0.16)">
       <use xlink:href="#DejaVuSans-30"/>
       <use xlink:href="#DejaVuSans-2e" transform="translate(63.623047 0)"/>
       <use xlink:href="#DejaVuSans-32" transform="translate(95.410156 0)"/>
      </g>
     </g>
    </g>
    <g id="xtick_9">
     <g id="line2d_16">
      <g>
       <use xlink:href="#m4bc08f07a8" x="283.213636" y="645.64" style="stroke: #000000; stroke-width: 0.8"/>
      </g>
     </g>
     <g id="text_11">
      <!-- 0.4 -->
      <g transform="translate(270.491136 664.7975) scale(0.16 -0.16)">
       <use xlink:href="#DejaVuSans-30"/>
       <use xlink:href="#DejaVuSans-2e" transform="translate(63.623047 0)"/>
       <use xlink:href="#DejaVuSans-34" transform="translate(95.410156 0)"/>
      </g>
     </g>
    </g>
    <g id="xtick_10">
     <g id="line2d_17">
      <g>
       <use xlink:href="#m4bc08f07a8" x="373.406364" y="645.64" style="stroke: #000000; stroke-width: 0.8"/>
      </g>
     </g>
     <g id="text_12">
      <!-- 0.6 -->
      <g transform="translate(360.683864 664.7975) scale(0.16 -0.16)">
       <defs>
        <path id="DejaVuSans-36" d="M 2113 2584 
Q 1688 2584 1439 2293 
Q 1191 2003 1191 1497 
Q 1191 994 1439 701 
Q 1688 409 2113 409 
Q 2538 409 2786 701 
Q 3034 994 3034 1497 
Q 3034 2003 2786 2293 
Q 2538 2584 2113 2584 
z
M 3366 4563 
L 3366 3988 
Q 3128 4100 2886 4159 
Q 2644 4219 2406 4219 
Q 1781 4219 1451 3797 
Q 1122 3375 1075 2522 
Q 1259 2794 1537 2939 
Q 1816 3084 2150 3084 
Q 2853 3084 3261 2657 
Q 3669 2231 3669 1497 
Q 3669 778 3244 343 
Q 2819 -91 2113 -91 
Q 1303 -91 875 529 
Q 447 1150 447 2328 
Q 447 3434 972 4092 
Q 1497 4750 2381 4750 
Q 2619 4750 2861 4703 
Q 3103 4656 3366 4563 
z
" transform="scale(0.015625)"/>
       </defs>
       <use xlink:href="#DejaVuSans-30"/>
       <use xlink:href="#DejaVuSans-2e" transform="translate(63.623047 0)"/>
       <use xlink:href="#DejaVuSans-36" transform="translate(95.410156 0)"/>
      </g>
     </g>
    </g>
    <g id="xtick_11">
     <g id="line2d_18">
      <g>
       <use xlink:href="#m4bc08f07a8" x="463.599091" y="645.64" style="stroke: #000000; stroke-width: 0.8"/>
      </g>
     </g>
     <g id="text_13">
      <!-- 0.8 -->
      <g transform="translate(450.876591 664.7975) scale(0.16 -0.16)">
       <defs>
        <path id="DejaVuSans-38" d="M 2034 2216 
Q 1584 2216 1326 1975 
Q 1069 1734 1069 1313 
Q 1069 891 1326 650 
Q 1584 409 2034 409 
Q 2484 409 2743 651 
Q 3003 894 3003 1313 
Q 3003 1734 2745 1975 
Q 2488 2216 2034 2216 
z
M 1403 2484 
Q 997 2584 770 2862 
Q 544 3141 544 3541 
Q 544 4100 942 4425 
Q 1341 4750 2034 4750 
Q 2731 4750 3128 4425 
Q 3525 4100 3525 3541 
Q 3525 3141 3298 2862 
Q 3072 2584 2669 2484 
Q 3125 2378 3379 2068 
Q 3634 1759 3634 1313 
Q 3634 634 3220 271 
Q 2806 -91 2034 -91 
Q 1263 -91 848 271 
Q 434 634 434 1313 
Q 434 1759 690 2068 
Q 947 2378 1403 2484 
z
M 1172 3481 
Q 1172 3119 1398 2916 
Q 1625 2713 2034 2713 
Q 2441 2713 2670 2916 
Q 2900 3119 2900 3481 
Q 2900 3844 2670 4047 
Q 2441 4250 2034 4250 
Q 1625 4250 1398 4047 
Q 1172 3844 1172 3481 
z
" transform="scale(0.015625)"/>
       </defs>
       <use xlink:href="#DejaVuSans-30"/>
       <use xlink:href="#DejaVuSans-2e" transform="translate(63.623047 0)"/>
       <use xlink:href="#DejaVuSans-38" transform="translate(95.410156 0)"/>
      </g>
     </g>
    </g>
    <g id="xtick_12">
     <g id="line2d_19">
      <g>
       <use xlink:href="#m4bc08f07a8" x="553.791818" y="645.64" style="stroke: #000000; stroke-width: 0.8"/>
      </g>
     </g>
     <g id="text_14">
      <!-- 1.0 -->
      <g transform="translate(541.069318 664.7975) scale(0.16 -0.16)">
       <use xlink:href="#DejaVuSans-31"/>
       <use xlink:href="#DejaVuSans-2e" transform="translate(63.623047 0)"/>
       <use xlink:href="#DejaVuSans-30" transform="translate(95.410156 0)"/>
      </g>
     </g>
    </g>
    <g id="text_15">
     <!-- e -->
     <g transform="translate(320.92625 690.36125) scale(0.24 -0.24)">
      <use xlink:href="#DejaVuSans-65"/>
     </g>
    </g>
   </g>
   <g id="matplotlib.axis_4">
    <g id="ytick_7">
     <g id="line2d_20">
      <g>
       <use xlink:href="#m5600a4afe5" x="80.28" y="612.346521" style="stroke: #000000; stroke-width: 0.8"/>
      </g>
     </g>
     <g id="text_16">
      <!-- −1.0 -->
      <g transform="translate(34.4275 618.425271) scale(0.16 -0.16)">
       <defs>
        <path id="DejaVuSans-2212" d="M 678 2272 
L 4684 2272 
L 4684 1741 
L 678 1741 
L 678 2272 
z
" transform="scale(0.015625)"/>
       </defs>
       <use xlink:href="#DejaVuSans-2212"/>
       <use xlink:href="#DejaVuSans-31" transform="translate(83.789062 0)"/>
       <use xlink:href="#DejaVuSans-2e" transform="translate(147.412109 0)"/>
       <use xlink:href="#DejaVuSans-30" transform="translate(179.199219 0)"/>
      </g>
     </g>
    </g>
    <g id="ytick_8">
     <g id="line2d_21">
      <g>
       <use xlink:href="#m5600a4afe5" x="80.28" y="577.783311" style="stroke: #000000; stroke-width: 0.8"/>
      </g>
     </g>
     <g id="text_17">
      <!-- −0.5 -->
      <g transform="translate(34.4275 583.862061) scale(0.16 -0.16)">
       <use xlink:href="#DejaVuSans-2212"/>
       <use xlink:href="#DejaVuSans-30" transform="translate(83.789062 0)"/>
       <use xlink:href="#DejaVuSans-2e" transform="translate(147.412109 0)"/>
       <use xlink:href="#DejaVuSans-35" transform="translate(179.199219 0)"/>
      </g>
     </g>
    </g>
    <g id="ytick_9">
     <g id="line2d_22">
      <g>
       <use xlink:href="#m5600a4afe5" x="80.28" y="543.2201" style="stroke: #000000; stroke-width: 0.8"/>
      </g>
     </g>
     <g id="text_18">
      <!-- 0.0 -->
      <g transform="translate(47.835 549.29885) scale(0.16 -0.16)">
       <use xlink:href="#DejaVuSans-30"/>
       <use xlink:href="#DejaVuSans-2e" transform="translate(63.623047 0)"/>
       <use xlink:href="#DejaVuSans-30" transform="translate(95.410156 0)"/>
      </g>
     </g>
    </g>
    <g id="ytick_10">
     <g id="line2d_23">
      <g>
       <use xlink:href="#m5600a4afe5" x="80.28" y="508.65689" style="stroke: #000000; stroke-width: 0.8"/>
      </g>
     </g>
     <g id="text_19">
      <!-- 0.5 -->
      <g transform="translate(47.835 514.73564) scale(0.16 -0.16)">
       <use xlink:href="#DejaVuSans-30"/>
       <use xlink:href="#DejaVuSans-2e" transform="translate(63.623047 0)"/>
       <use xlink:href="#DejaVuSans-35" transform="translate(95.410156 0)"/>
      </g>
     </g>
    </g>
    <g id="ytick_11">
     <g id="line2d_24">
      <g>
       <use xlink:href="#m5600a4afe5" x="80.28" y="474.09368" style="stroke: #000000; stroke-width: 0.8"/>
      </g>
     </g>
     <g id="text_20">
      <!-- 1.0 -->
      <g transform="translate(47.835 480.17243) scale(0.16 -0.16)">
       <use xlink:href="#DejaVuSans-31"/>
       <use xlink:href="#DejaVuSans-2e" transform="translate(63.623047 0)"/>
       <use xlink:href="#DejaVuSans-30" transform="translate(95.410156 0)"/>
      </g>
     </g>
    </g>
    <g id="ytick_12">
     <g id="line2d_25">
      <g>
       <use xlink:href="#m5600a4afe5" x="80.28" y="439.53047" style="stroke: #000000; stroke-width: 0.8"/>
      </g>
     </g>
     <g id="text_21">
      <!-- 1.5 -->
      <g transform="translate(47.835 445.60922) scale(0.16 -0.16)">
       <use xlink:href="#DejaVuSans-31"/>
       <use xlink:href="#DejaVuSans-2e" transform="translate(63.623047 0)"/>
       <use xlink:href="#DejaVuSans-35" transform="translate(95.410156 0)"/>
      </g>
     </g>
    </g>
    <g id="ytick_13">
     <g id="line2d_26">
      <g>
       <use xlink:href="#m5600a4afe5" x="80.28" y="404.967259" style="stroke: #000000; stroke-width: 0.8"/>
      </g>
     </g>
     <g id="text_22">
      <!-- 2.0 -->
      <g transform="translate(47.835 411.046009) scale(0.16 -0.16)">
       <use xlink:href="#DejaVuSans-32"/>
       <use xlink:href="#DejaVuSans-2e" transform="translate(63.623047 0)"/>
       <use xlink:href="#DejaVuSans-30" transform="translate(95.410156 0)"/>
      </g>
     </g>
    </g>
    <g id="ytick_14">
     <g id="line2d_27">
      <g>
       <use xlink:href="#m5600a4afe5" x="80.28" y="370.404049" style="stroke: #000000; stroke-width: 0.8"/>
      </g>
     </g>
     <g id="text_23">
      <!-- 2.5 -->
      <g transform="translate(47.835 376.482799) scale(0.16 -0.16)">
       <use xlink:href="#DejaVuSans-32"/>
       <use xlink:href="#DejaVuSans-2e" transform="translate(63.623047 0)"/>
       <use xlink:href="#DejaVuSans-35" transform="translate(95.410156 0)"/>
      </g>
     </g>
    </g>
    <g id="text_24">
     <!-- Residual probability -->
     <g transform="translate(25.43625 609.403125) rotate(-90) scale(0.24 -0.24)">
      <defs>
       <path id="DejaVuSans-52" d="M 2841 2188 
Q 3044 2119 3236 1894 
Q 3428 1669 3622 1275 
L 4263 0 
L 3584 0 
L 2988 1197 
Q 2756 1666 2539 1819 
Q 2322 1972 1947 1972 
L 1259 1972 
L 1259 0 
L 628 0 
L 628 4666 
L 2053 4666 
Q 2853 4666 3247 4331 
Q 3641 3997 3641 3322 
Q 3641 2881 3436 2590 
Q 3231 2300 2841 2188 
z
M 1259 4147 
L 1259 2491 
L 2053 2491 
Q 2509 2491 2742 2702 
Q 2975 2913 2975 3322 
Q 2975 3731 2742 3939 
Q 2509 4147 2053 4147 
L 1259 4147 
z
" transform="scale(0.015625)"/>
       <path id="DejaVuSans-70" d="M 1159 525 
L 1159 -1331 
L 581 -1331 
L 581 3500 
L 1159 3500 
L 1159 2969 
Q 1341 3281 1617 3432 
Q 1894 3584 2278 3584 
Q 2916 3584 3314 3078 
Q 3713 2572 3713 1747 
Q 3713 922 3314 415 
Q 2916 -91 2278 -91 
Q 1894 -91 1617 61 
Q 1341 213 1159 525 
z
M 3116 1747 
Q 3116 2381 2855 2742 
Q 2594 3103 2138 3103 
Q 1681 3103 1420 2742 
Q 1159 2381 1159 1747 
Q 1159 1113 1420 752 
Q 1681 391 2138 391 
Q 2594 391 2855 752 
Q 3116 1113 3116 1747 
z
" transform="scale(0.015625)"/>
       <path id="DejaVuSans-79" d="M 2059 -325 
Q 1816 -950 1584 -1140 
Q 1353 -1331 966 -1331 
L 506 -1331 
L 506 -850 
L 844 -850 
Q 1081 -850 1212 -737 
Q 1344 -625 1503 -206 
L 1606 56 
L 191 3500 
L 800 3500 
L 1894 763 
L 2988 3500 
L 3597 3500 
L 2059 -325 
z
" transform="scale(0.015625)"/>
      </defs>
      <use xlink:href="#DejaVuSans-52"/>
      <use xlink:href="#DejaVuSans-65" transform="translate(64.982422 0)"/>
      <use xlink:href="#DejaVuSans-73" transform="translate(126.505859 0)"/>
      <use xlink:href="#DejaVuSans-69" transform="translate(178.605469 0)"/>
      <use xlink:href="#DejaVuSans-64" transform="translate(206.388672 0)"/>
      <use xlink:href="#DejaVuSans-75" transform="translate(269.865234 0)"/>
      <use xlink:href="#DejaVuSans-61" transform="translate(333.244141 0)"/>
      <use xlink:href="#DejaVuSans-6c" transform="translate(394.523438 0)"/>
      <use xlink:href="#DejaVuSans-20" transform="translate(422.306641 0)"/>
      <use xlink:href="#DejaVuSans-70" transform="translate(454.09375 0)"/>
      <use xlink:href="#DejaVuSans-72" transform="translate(517.570312 0)"/>
      <use xlink:href="#DejaVuSans-6f" transform="translate(556.433594 0)"/>
      <use xlink:href="#DejaVuSans-62" transform="translate(617.615234 0)"/>
      <use xlink:href="#DejaVuSans-61" transform="translate(681.091797 0)"/>
      <use xlink:href="#DejaVuSans-62" transform="translate(742.371094 0)"/>
      <use xlink:href="#DejaVuSans-69" transform="translate(805.847656 0)"/>
      <use xlink:href="#DejaVuSans-6c" transform="translate(833.630859 0)"/>
      <use xlink:href="#DejaVuSans-69" transform="translate(861.414062 0)"/>
      <use xlink:href="#DejaVuSans-74" transform="translate(889.197266 0)"/>
      <use xlink:href="#DejaVuSans-79" transform="translate(928.40625 0)"/>
     </g>
    </g>
   </g>
   <g id="line2d_28">
    <path d="M 80.28 543.2201 
L 576.34 543.2201 
" clip-path="url(#pef406bdf1f)" style="fill: none; stroke-dasharray: 2.96,1.28; stroke-dashoffset: 0; stroke: #000000; stroke-width: 0.8"/>
   </g>
   <g id="patch_311">
    <path d="M 80.28 645.64 
L 80.28 336.14 
" style="fill: none; stroke: #000000; stroke-width: 1.1; stroke-linejoin: miter; stroke-linecap: square"/>
   </g>
   <g id="patch_312">
    <path d="M 576.34 645.64 
L 576.34 336.14 
" style="fill: none; stroke: #000000; stroke-width: 1.1; stroke-linejoin: miter; stroke-linecap: square"/>
   </g>
   <g id="patch_313">
    <path d="M 80.28 645.64 
L 576.34 645.64 
" style="fill: none; stroke: #000000; stroke-width: 1.1; stroke-linejoin: miter; stroke-linecap: square"/>
   </g>
   <g id="patch_314">
    <path d="M 80.28 336.14 
L 576.34 336.14 
" style="fill: none; stroke: #000000; stroke-width: 1.1; stroke-linejoin: miter; stroke-linecap: square"/>
   </g>
   <g id="legend_2">
    <g id="patch_315">
     <path d="M 431.22 372.425 
L 565.14 372.425 
Q 568.34 372.425 568.34 369.225 
L 568.34 347.34 
Q 568.34 344.14 565.14 344.14 
L 431.22 344.14 
Q 428.02 344.14 428.02 347.34 
L 428.02 369.225 
Q 428.02 372.425 431.22 372.425 
z
" style="fill: #ffffff; opacity: 0.8; stroke: #cccccc; stroke-linejoin: miter"/>
    </g>
    <g id="patch_316">
     <path d="M 434.42 362.6975 
L 466.42 362.6975 
L 466.42 351.4975 
L 434.42 351.4975 
z
" style="fill: #9467bd"/>
    </g>
    <g id="text_25">
     <!-- Difference -->
     <g transform="translate(479.22 362.6975) scale(0.16 -0.16)">
      <defs>
       <path id="DejaVuSans-44" d="M 1259 4147 
L 1259 519 
L 2022 519 
Q 2988 519 3436 956 
Q 3884 1394 3884 2338 
Q 3884 3275 3436 3711 
Q 2988 4147 2022 4147 
L 1259 4147 
z
M 628 4666 
L 1925 4666 
Q 3281 4666 3915 4102 
Q 4550 3538 4550 2338 
Q 4550 1131 3912 565 
Q 3275 0 1925 0 
L 628 0 
L 628 4666 
z
" transform="scale(0.015625)"/>
       <path id="DejaVuSans-66" d="M 2375 4863 
L 2375 4384 
L 1825 4384 
Q 1516 4384 1395 4259 
Q 1275 4134 1275 3809 
L 1275 3500 
L 2222 3500 
L 2222 3053 
L 1275 3053 
L 1275 0 
L 697 0 
L 697 3053 
L 147 3053 
L 147 3500 
L 697 3500 
L 697 3744 
Q 697 4328 969 4595 
Q 1241 4863 1831 4863 
L 2375 4863 
z
" transform="scale(0.015625)"/>
      </defs>
      <use xlink:href="#DejaVuSans-44"/>
      <use xlink:href="#DejaVuSans-69" transform="translate(77.001953 0)"/>
      <use xlink:href="#DejaVuSans-66" transform="translate(104.785156 0)"/>
      <use xlink:href="#DejaVuSans-66" transform="translate(139.990234 0)"/>
      <use xlink:href="#DejaVuSans-65" transform="translate(175.195312 0)"/>
      <use xlink:href="#DejaVuSans-72" transform="translate(236.71875 0)"/>
      <use xlink:href="#DejaVuSans-65" transform="translate(275.582031 0)"/>
      <use xlink:href="#DejaVuSans-6e" transform="translate(337.105469 0)"/>
      <use xlink:href="#DejaVuSans-63" transform="translate(400.484375 0)"/>
      <use xlink:href="#DejaVuSans-65" transform="translate(455.464844 0)"/>
     </g>
    </g>
   </g>
  </g>
 </g>
 <defs>
  <clipPath id="p723c5123b9">
   <rect x="80.28" y="7.2" width="496.06" height="309.5"/>
  </clipPath>
  <clipPath id="pef406bdf1f">
   <rect x="80.28" y="336.14" width="496.06" height="309.5"/>
  </clipPath>
 </defs>
</svg>
